<svg width="170" height="51" viewBox="0 0 170 51" fill="none" xmlns="http://www.w3.org/2000/svg">
<g clip-path="url(#clip0_337_369)">
<path d="M163.714 50.2857H6.57142C3.11428 50.2857 0.285706 47.4571 0.285706 44V6.28571C0.285706 2.82857 3.11428 0 6.57142 0H163.714C167.171 0 170 2.82857 170 6.28571V44C170 47.4571 167.171 50.2857 163.714 50.2857Z" fill="black"/>
<path d="M163.714 1.00571C166.631 1.00571 168.994 3.36914 168.994 6.28571V44C168.994 46.9166 166.631 49.28 163.714 49.28H6.57142C3.65485 49.28 1.29142 46.9166 1.29142 44V6.28571C1.29142 3.36914 3.65485 1.00571 6.57142 1.00571H163.714ZM163.714 0H6.57142C3.11428 0 0.285706 2.82857 0.285706 6.28571V44C0.285706 47.4571 3.11428 50.2857 6.57142 50.2857H163.714C167.171 50.2857 170 47.4571 170 44V6.28571C170 2.82857 167.171 0 163.714 0Z" fill="#A6A6A6"/>
<path d="M38.352 25.5201C38.3771 23.3829 39.496 21.4218 41.3188 20.3029C40.1623 18.6561 38.3017 17.6504 36.3028 17.5875C34.1908 17.3612 32.1417 18.8447 31.0731 18.8447C29.9794 18.8447 28.32 17.6001 26.5348 17.6378C24.184 17.7132 22.0594 19.0207 20.9154 21.0698C18.4891 25.2812 20.2994 31.4664 22.6251 34.8732C23.7943 36.5452 25.152 38.4058 26.9371 38.3304C28.6846 38.2549 29.3383 37.2241 31.4377 37.2241C33.5246 37.2241 34.128 38.3304 35.9508 38.2927C37.824 38.2675 39.0057 36.6207 40.1246 34.9361C40.9668 33.7544 41.608 32.4344 42.0354 31.0515C39.7977 30.1087 38.352 27.9338 38.352 25.5201Z" fill="white"/>
<path d="M34.92 15.3498C35.9383 14.1303 36.4411 12.5463 36.3154 10.9623C34.7566 11.1258 33.3108 11.8675 32.28 13.0492C31.2617 14.2058 30.7463 15.7269 30.8468 17.2732C32.4308 17.2858 33.9268 16.5818 34.92 15.3498Z" fill="white"/>
<path d="M66.072 34.1188H60.1257L58.6926 38.3428H56.1783L61.8103 22.7291H64.4251L70.0571 38.3428H67.4926L66.072 34.1188ZM60.7417 32.1703H65.456L63.1303 25.3188H63.0674L60.7417 32.1703Z" fill="white"/>
<path d="M82.2389 32.648C82.2389 36.1806 80.3406 38.456 77.4868 38.456C76.016 38.5314 74.6206 37.7646 73.904 36.4697H73.8537V42.1017H71.5154V26.9531H73.7783V28.8514H73.816C74.5577 27.5691 75.9531 26.7897 77.4366 26.84C80.328 26.84 82.2389 29.1154 82.2389 32.648ZM79.8377 32.648C79.8377 30.3474 78.6434 28.8263 76.8331 28.8263C75.048 28.8263 73.8411 30.3726 73.8411 32.648C73.8411 34.936 75.048 36.4823 76.8331 36.4823C78.6434 36.4823 79.8377 34.9737 79.8377 32.648Z" fill="white"/>
<path d="M94.76 32.648C94.76 36.1806 92.8617 38.456 90.008 38.456C88.5371 38.5314 87.1417 37.7646 86.4251 36.4697H86.3749V42.1017H84.0366V26.9531H86.2994V28.8514H86.3371C87.0788 27.5691 88.4743 26.7897 89.9577 26.84C92.8617 26.84 94.76 29.1154 94.76 32.648ZM92.3588 32.648C92.3588 30.3474 91.1646 28.8263 89.3543 28.8263C87.5691 28.8263 86.3623 30.3726 86.3623 32.648C86.3623 34.936 87.5691 36.4823 89.3543 36.4823C91.1646 36.4823 92.3588 34.9737 92.3588 32.648Z" fill="white"/>
<path d="M103.045 33.9931C103.221 35.5394 104.717 36.5577 106.778 36.5577C108.752 36.5577 110.16 35.5394 110.16 34.144C110.16 32.9371 109.305 32.208 107.281 31.7051L105.257 31.2149C102.391 30.5234 101.058 29.1783 101.058 27.0034C101.058 24.3131 103.409 22.4651 106.741 22.4651C110.034 22.4651 112.297 24.3131 112.373 27.0034H110.009C109.871 25.4446 108.576 24.5017 106.703 24.5017C104.83 24.5017 103.535 25.4571 103.535 26.84C103.535 27.9463 104.352 28.5874 106.363 29.0903L108.086 29.5177C111.291 30.272 112.624 31.5669 112.624 33.8423C112.624 36.7589 110.298 38.5943 106.602 38.5943C103.145 38.5943 100.807 36.8091 100.656 33.9806L103.045 33.9931Z" fill="white"/>
<path d="M117.665 24.2629V26.9532H119.827V28.8012H117.665V35.0743C117.665 36.0549 118.093 36.5074 119.048 36.5074C119.299 36.5074 119.563 36.4823 119.815 36.4572V38.2926C119.387 38.368 118.947 38.4057 118.52 38.4057C116.219 38.4057 115.314 37.5383 115.314 35.3383V28.8137H113.655V26.9657H115.314V24.2629H117.665Z" fill="white"/>
<path d="M121.085 32.648C121.085 29.0652 123.197 26.8149 126.478 26.8149C129.784 26.8149 131.871 29.0652 131.871 32.648C131.871 36.2435 129.784 38.4812 126.478 38.4812C123.171 38.4812 121.085 36.2435 121.085 32.648ZM129.507 32.648C129.507 30.1966 128.376 28.7383 126.49 28.7383C124.605 28.7383 123.473 30.1966 123.473 32.648C123.473 35.112 124.592 36.5577 126.49 36.5577C128.389 36.5577 129.507 35.112 129.507 32.648Z" fill="white"/>
<path d="M133.807 26.9531H136.032V28.8891H136.082C136.397 27.6446 137.541 26.7897 138.823 26.8274C139.087 26.8274 139.363 26.8526 139.627 26.9154V29.1029C139.288 29.0023 138.936 28.952 138.584 28.9646C137.289 28.9143 136.183 29.92 136.133 31.2274C136.133 31.3531 136.133 31.4663 136.145 31.592V38.3429H133.807V26.9531Z" fill="white"/>
<path d="M150.401 34.9989C150.087 37.0606 148.075 38.4812 145.498 38.4812C142.192 38.4812 140.13 36.2686 140.13 32.6983C140.13 29.128 142.192 26.8149 145.398 26.8149C148.541 26.8149 150.527 28.9772 150.527 32.4343V33.2389H142.494V33.3772C142.355 35.0115 143.55 36.4446 145.184 36.5955C145.31 36.608 145.435 36.608 145.549 36.608C146.68 36.7086 147.749 36.0675 148.176 35.0115L150.401 34.9989ZM142.506 31.592H148.201C148.289 30.0835 147.133 28.7886 145.624 28.7132C145.549 28.7132 145.486 28.7132 145.41 28.7132C143.814 28.7006 142.519 29.9829 142.506 31.5795V31.592Z" fill="white"/>
<path d="M57.7371 18.48V10.9749H60.7543C62.1623 10.9749 63.0046 11.6914 63.0046 12.848C63.0046 13.6274 62.4514 14.3063 61.6846 14.4571V14.5451C62.64 14.5954 63.3943 15.3874 63.3691 16.3429C63.3691 17.6629 62.4137 18.4674 60.8046 18.4674L57.7371 18.48ZM58.9063 14.1554H60.2891C61.32 14.1554 61.8606 13.7783 61.8606 13.0617C61.8606 12.3703 61.3577 11.968 60.4903 11.968H58.9063V14.1554ZM60.5909 17.4869C61.6343 17.4869 62.2 17.0594 62.2 16.2674C62.2 15.488 61.6217 15.0731 60.528 15.0731H58.9063V17.4869H60.5909Z" fill="white"/>
<path d="M64.576 16.8709C64.576 15.8526 65.3303 15.2617 66.6754 15.1863L68.2091 15.0983V14.608C68.2091 14.0046 67.8194 13.6777 67.0526 13.6777C66.424 13.6777 65.9966 13.904 65.8708 14.3063H64.7897C64.9028 13.3383 65.8206 12.7097 67.1029 12.7097C68.5234 12.7097 69.328 13.4137 69.328 14.608V18.48H68.2469V17.688H68.1714C67.8069 18.2663 67.1531 18.6057 66.4743 18.5806C65.5314 18.6811 64.6891 17.9897 64.6011 17.0594C64.576 16.984 64.576 16.9337 64.576 16.8709ZM68.2217 16.3931V15.9154L66.8388 16.0034C66.0594 16.0537 65.7074 16.3177 65.7074 16.8206C65.7074 17.336 66.1474 17.6251 66.7508 17.6251C67.48 17.7006 68.1337 17.16 68.2091 16.4309C68.2091 16.4183 68.2217 16.4057 68.2217 16.3931Z" fill="white"/>
<path d="M70.9371 11.1383C70.912 10.736 71.2137 10.3966 71.616 10.3715C72.0183 10.3463 72.3577 10.648 72.3828 11.0503C72.408 11.4526 72.1063 11.792 71.704 11.8172C71.6914 11.8172 71.6788 11.8172 71.6663 11.8172C71.2891 11.8423 70.9623 11.5406 70.9497 11.1635C70.9371 11.1635 70.9371 11.1509 70.9371 11.1383ZM71.1006 12.8103H72.2194V18.4675H71.1006V12.8103Z" fill="white"/>
<path d="M76.0411 16.4686L74.8091 18.48H73.5771L75.4503 15.664L73.552 12.8229H74.8594L76.0788 14.8217H76.1668L77.3737 12.8229H78.6183L76.7577 15.6137L78.6434 18.48H77.3611L76.1291 16.4686H76.0411Z" fill="white"/>
<path d="M79.6366 16.8709C79.6366 15.8526 80.3908 15.2617 81.736 15.1863L83.2697 15.0983V14.608C83.2697 14.0046 82.88 13.6777 82.1131 13.6777C81.4846 13.6777 81.0571 13.904 80.9314 14.3063H79.8503C79.9634 13.3383 80.8811 12.7097 82.1634 12.7097C83.584 12.7097 84.3886 13.4137 84.3886 14.608V18.48H83.3074V17.688H83.2194C82.8548 18.2663 82.2011 18.6057 81.5223 18.5806C80.5794 18.6811 79.7371 17.9897 79.6491 17.0594C79.6366 16.984 79.6366 16.9337 79.6366 16.8709ZM83.2697 16.3931V15.9154L81.8868 16.0034C81.1074 16.0537 80.7554 16.3177 80.7554 16.8206C80.7554 17.336 81.1954 17.6251 81.7988 17.6251C82.528 17.7006 83.1817 17.16 83.2571 16.4309C83.2697 16.4183 83.2697 16.4057 83.2697 16.3931Z" fill="white"/>
<path d="M86.136 12.8103H87.2171V13.6777H87.3051C87.5566 13.0617 88.1726 12.672 88.8388 12.7097C89.0023 12.7097 89.1783 12.7223 89.3417 12.76V13.8663C89.1406 13.8286 88.9268 13.8034 88.7131 13.8034C87.984 13.7406 87.3429 14.2812 87.2674 15.0103C87.2674 15.048 87.2674 15.0983 87.2674 15.136V18.48H86.1486L86.136 12.8103Z" fill="white"/>
<path d="M93.6286 12.8103H94.7097V13.7155H94.7977C95.0868 13.0492 95.7657 12.6469 96.4823 12.7097C97.5006 12.6343 98.3806 13.3886 98.456 14.4069C98.4686 14.5452 98.456 14.6835 98.4434 14.8092V18.4675H97.3246V15.0857C97.3246 14.1806 96.9349 13.728 96.1051 13.728C95.3886 13.6903 94.7851 14.2435 94.7474 14.96C94.7474 15.0229 94.7474 15.0983 94.7474 15.1612V18.4675H93.6286V12.8103Z" fill="white"/>
<path d="M99.8389 16.8709C99.8389 15.8526 100.593 15.2617 101.938 15.1863L103.472 15.0983V14.608C103.472 14.0046 103.082 13.6777 102.315 13.6777C101.687 13.6777 101.259 13.904 101.134 14.3063H100.053C100.166 13.3383 101.083 12.7097 102.366 12.7097C103.786 12.7097 104.591 13.4137 104.591 14.608V18.48H103.51V17.688H103.422C103.057 18.2663 102.403 18.6057 101.725 18.5806C100.782 18.6811 99.9394 17.9897 99.8514 17.0594C99.8388 16.984 99.8389 16.9337 99.8389 16.8709ZM103.472 16.3931V15.9154L102.089 16.0034C101.31 16.0537 100.958 16.3177 100.958 16.8206C100.958 17.336 101.398 17.6251 102.001 17.6251C102.73 17.7006 103.384 17.16 103.459 16.4309C103.472 16.4183 103.472 16.4057 103.472 16.3931Z" fill="white"/>
</g>
<defs>
<clipPath id="clip0_337_369">
<rect width="169.714" height="50.2857" fill="white" transform="translate(0.285706)"/>
</clipPath>
</defs>
</svg>
