<svg width="132" height="39" viewBox="0 0 132 39" fill="none" xmlns="http://www.w3.org/2000/svg">
<g clip-path="url(#clip0_338_249)">
<path d="M127.111 0.78C129.38 0.78 131.218 2.613 131.218 4.875V34.125C131.218 36.387 129.38 38.22 127.111 38.22H4.88889C2.62044 38.22 0.782222 36.387 0.782222 34.125V4.875C0.782222 2.613 2.62044 0.78 4.88889 0.78H127.111ZM127.111 0H4.88889C2.2 0 0 2.19375 0 4.875V34.125C0 36.8063 2.2 39 4.88889 39H127.111C129.8 39 132 36.8063 132 34.125V4.875C132 2.19375 129.8 0 127.111 0Z" fill="#A6A6A6"/>
<path d="M29.6071 19.7924C29.6267 18.1349 30.4969 16.6139 31.9147 15.7462C31.0151 14.4689 29.568 13.6889 28.0133 13.6402C26.3707 13.4647 24.7769 14.6152 23.9458 14.6152C23.0951 14.6152 21.8044 13.6499 20.416 13.6792C18.5876 13.7377 16.9351 14.7517 16.0453 16.3409C14.1582 19.6072 15.5662 24.4042 17.3751 27.0464C18.2844 28.3432 19.3404 29.7862 20.7289 29.7277C22.088 29.6692 22.5964 28.8697 24.2293 28.8697C25.8524 28.8697 26.3218 29.7277 27.7396 29.6984C29.1964 29.6789 30.1156 28.4017 30.9858 27.0952C31.6409 26.1787 32.1396 25.1549 32.472 24.0824C30.7316 23.3512 29.6071 21.6644 29.6071 19.7924Z" fill="white"/>
<path d="M26.9378 11.9047C27.7298 10.959 28.1209 9.73045 28.0231 8.50195C26.8107 8.6287 25.6862 9.20395 24.8844 10.1205C24.0924 11.0175 23.6916 12.1972 23.7698 13.3964C25.0018 13.4062 26.1653 12.8602 26.9378 11.9047Z" fill="white"/>
<path d="M51.1671 26.4614H46.5422L45.4276 29.7374H43.472L47.8525 17.6279H49.8862L54.2667 29.7374H52.272L51.1671 26.4614ZM47.0213 24.9502H50.688L48.8791 19.6364H48.8302L47.0213 24.9502Z" fill="white"/>
<path d="M63.7414 25.3207C63.7414 28.0605 62.2649 29.8252 60.0454 29.8252C58.9014 29.8837 57.816 29.289 57.2587 28.2847H57.2196V32.6527H55.4009V20.904H57.1609V22.3762H57.1902C57.7671 21.3817 58.8525 20.7772 60.0062 20.8162C62.2551 20.8162 63.7414 22.581 63.7414 25.3207ZM61.8738 25.3207C61.8738 23.5365 60.9449 22.3567 59.5369 22.3567C58.1485 22.3567 57.2098 23.556 57.2098 25.3207C57.2098 27.0952 58.1485 28.2945 59.5369 28.2945C60.9449 28.2945 61.8738 27.1245 61.8738 25.3207Z" fill="white"/>
<path d="M73.48 25.3207C73.48 28.0605 72.0036 29.8252 69.784 29.8252C68.64 29.8837 67.5547 29.289 66.9973 28.2847H66.9582V32.6527H65.1396V20.904H66.8996V22.3762H66.9289C67.5058 21.3817 68.5911 20.7772 69.7449 20.8162C72.0036 20.8162 73.48 22.581 73.48 25.3207ZM71.6124 25.3207C71.6124 23.5365 70.6836 22.3567 69.2756 22.3567C67.8871 22.3567 66.9484 23.556 66.9484 25.3207C66.9484 27.0952 67.8871 28.2945 69.2756 28.2945C70.6836 28.2945 71.6124 27.1245 71.6124 25.3207Z" fill="white"/>
<path d="M79.9236 26.364C80.0605 27.5632 81.224 28.353 82.8276 28.353C84.3627 28.353 85.4578 27.5632 85.4578 26.481C85.4578 25.545 84.7929 24.9795 83.2187 24.5895L81.6445 24.2092C79.4151 23.673 78.3787 22.6297 78.3787 20.943C78.3787 18.8565 80.2071 17.4232 82.7982 17.4232C85.36 17.4232 87.12 18.8565 87.1787 20.943H85.3405C85.2329 19.734 84.2258 19.0027 82.7689 19.0027C81.312 19.0027 80.3049 19.7437 80.3049 20.8162C80.3049 21.6742 80.9405 22.1715 82.5049 22.5615L83.8445 22.893C86.3378 23.478 87.3742 24.4822 87.3742 26.247C87.3742 28.509 85.5654 29.9325 82.6907 29.9325C80.0018 29.9325 78.1831 28.548 78.0658 26.3542L79.9236 26.364Z" fill="white"/>
<path d="M91.2951 18.8175V20.904H92.9769V22.3373H91.2951V27.2025C91.2951 27.963 91.6276 28.314 92.3707 28.314C92.5662 28.314 92.7716 28.2945 92.9671 28.275V29.6985C92.6347 29.757 92.2925 29.7863 91.96 29.7863C90.1707 29.7863 89.4667 29.1135 89.4667 27.4073V22.347H88.176V20.9138H89.4667V18.8175H91.2951Z" fill="white"/>
<path d="M93.9547 25.3208C93.9547 22.542 95.5974 20.7968 98.1494 20.7968C100.721 20.7968 102.344 22.542 102.344 25.3208C102.344 28.1093 100.721 29.8448 98.1494 29.8448C95.5778 29.8448 93.9547 28.1093 93.9547 25.3208ZM100.506 25.3208C100.506 23.4195 99.6258 22.2885 98.1591 22.2885C96.6925 22.2885 95.8125 23.4195 95.8125 25.3208C95.8125 27.2318 96.6827 28.353 98.1591 28.353C99.6356 28.353 100.506 27.2318 100.506 25.3208Z" fill="white"/>
<path d="M103.85 20.904H105.58V22.4055H105.62C105.864 21.4402 106.754 20.7772 107.751 20.8065C107.956 20.8065 108.172 20.826 108.377 20.8747V22.5712C108.113 22.4932 107.839 22.4542 107.565 22.464C106.558 22.425 105.698 23.205 105.659 24.219C105.659 24.3165 105.659 24.4042 105.668 24.5017V29.7375H103.85V20.904Z" fill="white"/>
<path d="M116.756 27.144C116.512 28.743 114.948 29.8448 112.943 29.8448C110.372 29.8448 108.768 28.1288 108.768 25.3598C108.768 22.5908 110.372 20.7968 112.865 20.7968C115.309 20.7968 116.854 22.4738 116.854 25.155V25.779H110.606V25.8863C110.499 27.1538 111.428 28.2653 112.699 28.3823C112.796 28.392 112.894 28.392 112.982 28.392C113.862 28.47 114.693 27.9728 115.026 27.1538L116.756 27.144ZM110.616 24.5018H115.045C115.114 23.3318 114.214 22.3275 113.041 22.269C112.982 22.269 112.933 22.269 112.875 22.269C111.633 22.2593 110.626 23.2538 110.616 24.492V24.5018Z" fill="white"/>
<path d="M44.6844 14.3325V8.51172H47.0311C48.1262 8.51172 48.7813 9.06747 48.7813 9.96447C48.7813 10.569 48.3511 11.0955 47.7547 11.2125V11.2807C48.4978 11.3197 49.0844 11.934 49.0649 12.675C49.0649 13.6987 48.3218 14.3227 47.0702 14.3227L44.6844 14.3325ZM45.5938 10.9785H46.6693C47.4711 10.9785 47.8916 10.686 47.8916 10.1302C47.8916 9.59397 47.5004 9.28197 46.8258 9.28197H45.5938V10.9785ZM46.904 13.5622C47.7156 13.5622 48.1556 13.2307 48.1556 12.6165C48.1556 12.012 47.7058 11.6902 46.8551 11.6902H45.5938V13.5622H46.904Z" fill="white"/>
<path d="M50.0036 13.0844C50.0036 12.2947 50.5902 11.8364 51.6365 11.7779L52.8294 11.7097V11.3294C52.8294 10.8614 52.5262 10.6079 51.9298 10.6079C51.4409 10.6079 51.1085 10.7834 51.0107 11.0954H50.1698C50.2578 10.3447 50.9716 9.85718 51.9689 9.85718C53.0738 9.85718 53.6996 10.4032 53.6996 11.3294V14.3324H52.8587V13.7182H52.8C52.5165 14.1667 52.008 14.4299 51.48 14.4104C50.7467 14.4884 50.0916 13.9522 50.0231 13.2307C50.0036 13.1722 50.0036 13.1332 50.0036 13.0844ZM52.8391 12.7139V12.3434L51.7636 12.4117C51.1573 12.4507 50.8836 12.6554 50.8836 13.0454C50.8836 13.4452 51.2258 13.6694 51.6951 13.6694C52.2622 13.7279 52.7707 13.3087 52.8294 12.7432C52.8294 12.7334 52.8391 12.7237 52.8391 12.7139Z" fill="white"/>
<path d="M54.9511 8.63849C54.9316 8.32649 55.1662 8.06324 55.4791 8.04374C55.792 8.02424 56.056 8.25824 56.0756 8.57024C56.0951 8.88224 55.8605 9.14549 55.5476 9.16499C55.5378 9.16499 55.528 9.16499 55.5182 9.16499C55.2249 9.18449 54.9707 8.95049 54.9609 8.65799C54.9511 8.65799 54.9511 8.64824 54.9511 8.63849ZM55.0782 9.93524H55.9485V14.3227H55.0782V9.93524Z" fill="white"/>
<path d="M58.9209 12.7724L57.9627 14.3324H57.0044L58.4613 12.1484L56.9849 9.94495H58.0018L58.9502 11.4952H59.0187L59.9573 9.94495H60.9253L59.4782 12.1094L60.9449 14.3324H59.9476L58.9893 12.7724H58.9209Z" fill="white"/>
<path d="M61.7173 13.0844C61.7173 12.2947 62.304 11.8364 63.3502 11.7779L64.5431 11.7097V11.3294C64.5431 10.8614 64.24 10.6079 63.6436 10.6079C63.1547 10.6079 62.8222 10.7834 62.7245 11.0954H61.8836C61.9716 10.3447 62.6853 9.85718 63.6827 9.85718C64.7876 9.85718 65.4134 10.4032 65.4134 11.3294V14.3324H64.5725V13.7182H64.504C64.2205 14.1667 63.712 14.4299 63.184 14.4104C62.4507 14.4884 61.7956 13.9522 61.7271 13.2307C61.7173 13.1722 61.7173 13.1332 61.7173 13.0844ZM64.5431 12.7139V12.3434L63.4676 12.4117C62.8614 12.4507 62.5876 12.6554 62.5876 13.0454C62.5876 13.4452 62.9298 13.6694 63.3991 13.6694C63.9662 13.7279 64.4747 13.3087 64.5334 12.7432C64.5431 12.7334 64.5431 12.7237 64.5431 12.7139Z" fill="white"/>
<path d="M66.7725 9.93517H67.6133V10.6079H67.6818C67.8773 10.1302 68.3565 9.82792 68.8747 9.85717C69.0018 9.85717 69.1387 9.86692 69.2658 9.89617V10.7542C69.1093 10.7249 68.9431 10.7054 68.7769 10.7054C68.2098 10.6567 67.7111 11.0759 67.6525 11.6414C67.6525 11.6707 67.6525 11.7097 67.6525 11.7389V14.3324H66.7822L66.7725 9.93517Z" fill="white"/>
<path d="M72.6 9.93528H73.4409V10.6373H73.5093C73.7342 10.1205 74.2622 9.80854 74.8196 9.85729C75.6116 9.79879 76.296 10.3838 76.3547 11.1735C76.3645 11.2808 76.3547 11.388 76.3449 11.4855V14.3228H75.4747V11.7C75.4747 10.998 75.1716 10.647 74.5262 10.647C73.9689 10.6178 73.4996 11.0468 73.4702 11.6025C73.4702 11.6513 73.4702 11.7098 73.4702 11.7585V14.3228H72.6V9.93528Z" fill="white"/>
<path d="M77.4302 13.0844C77.4302 12.2947 78.0169 11.8364 79.0631 11.7779L80.256 11.7097V11.3294C80.256 10.8614 79.9529 10.6079 79.3565 10.6079C78.8676 10.6079 78.5351 10.7834 78.4373 11.0954H77.5965C77.6845 10.3447 78.3982 9.85718 79.3956 9.85718C80.5005 9.85718 81.1262 10.4032 81.1262 11.3294V14.3324H80.2853V13.7182H80.2169C79.9333 14.1667 79.4249 14.4299 78.8969 14.4104C78.1636 14.4884 77.5085 13.9522 77.44 13.2307C77.4302 13.1722 77.4302 13.1332 77.4302 13.0844ZM80.256 12.7139V12.3434L79.1805 12.4117C78.5742 12.4507 78.3005 12.6554 78.3005 13.0454C78.3005 13.4452 78.6427 13.6694 79.112 13.6694C79.6791 13.7279 80.1876 13.3087 80.2462 12.7432C80.256 12.7334 80.256 12.7237 80.256 12.7139Z" fill="white"/>
</g>
<defs>
<clipPath id="clip0_338_249">
<rect width="132" height="39" fill="white"/>
</clipPath>
</defs>
</svg>
