<svg width="49" height="49" viewBox="0 0 49 49" fill="none" xmlns="http://www.w3.org/2000/svg">
<g clip-path="url(#clip0_337_197)">
<path d="M2.50003 40C1.33336 38 2.00003 31.4 14 21C25.3307 11.1801 28.9345 2.96497 29.0207 2.50001L29 2.50001C29.0186 2.47212 29.0258 2.47254 29.0207 2.50001L32 2.5L33 4.5H34.5L35.5 4L37.5 3.5L39 4.5L39.5 8L44 10.5C43.8333 11.8333 43.1 14.5 41.5 14.5C39.9 14.5 41.5 15.1667 42.5 15.5L46 17.5L48 17L47 22L44 24L43 24.5C41.3333 24.5 40.8 28.3 40 27.5C39.2 26.7 34.5 26 34.5 28L17 45.5L12.5 46.5L7 45L2.50003 40Z" fill="#FDD835"/>
<path d="M9.20198 31.2297C8.87793 30.9067 8.35213 30.907 8.02779 31.2302C7.70346 31.5535 7.70326 32.0773 8.02732 32.4003C8.35146 32.7233 8.87706 32.7231 9.2015 32.3999C9.52584 32.0766 9.52603 31.5527 9.20198 31.2297Z" fill="black"/>
<path d="M8.73038 36.3788C8.40614 36.0558 7.88054 36.0559 7.5561 36.3791C7.23176 36.7024 7.23157 37.2263 7.55572 37.5493C7.87977 37.8723 8.40547 37.8721 8.7299 37.5489C9.05424 37.2256 9.05443 36.7018 8.73038 36.3788Z" fill="black"/>
<path d="M15.3066 33.5677C14.9824 33.2448 14.4568 33.245 14.1324 33.5682C13.8081 33.8915 13.8079 34.4154 14.1319 34.7384C14.456 35.0614 14.9817 35.0612 15.3061 34.7379C15.6305 34.4146 15.6306 33.8907 15.3066 33.5677Z" fill="black"/>
<path d="M5.99184 33.4933C5.66769 33.1703 5.14199 33.1706 4.81765 33.4938C4.49331 33.8171 4.49312 34.3409 4.81727 34.6639C5.14132 34.9869 5.66702 34.9868 5.99145 34.6635C6.31579 34.3402 6.31598 33.8163 5.99184 33.4933Z" fill="black"/>
<path d="M10.6919 24.1301C10.3677 23.8071 9.84207 23.8073 9.51763 24.1306C9.1933 24.4539 9.19311 24.9778 9.51725 25.3008C9.8413 25.6238 10.367 25.6236 10.6914 25.3003C11.0158 24.977 11.016 24.4531 10.6919 24.1301Z" fill="black"/>
<path d="M18.5182 27.2476C18.1941 26.9246 17.6685 26.9248 17.3441 27.2481C17.0196 27.5714 17.0195 28.0953 17.3436 28.4183C17.6676 28.7413 18.1933 28.7411 18.5178 28.4178C18.8422 28.0945 18.8424 27.5706 18.5182 27.2476Z" fill="black"/>
<path d="M16.9552 21.0074C16.6312 20.6844 16.1055 20.6846 15.781 21.0079C15.4567 21.3311 15.4565 21.855 15.7807 22.178C16.1047 22.501 16.6304 22.5008 16.9548 22.1775C17.2791 21.8543 17.2793 21.3304 16.9552 21.0074Z" fill="black"/>
<path d="M27.1315 20.2235C26.8074 19.9005 26.2817 19.9007 25.9573 20.2239C25.6329 20.5472 25.6328 21.0711 25.9568 21.3941C26.2809 21.717 26.8066 21.7168 27.131 21.3936C27.4553 21.0703 27.4555 20.5465 27.1315 20.2235Z" fill="black"/>
<mask id="path-10-inside-1_337_197" fill="white">
<path d="M48.6368 15.049C48.6048 14.6143 48.4784 14.1993 48.2674 13.8275C48.0073 13.0877 47.6802 12.3417 47.2876 11.5982L48.1042 10.7844C48.6569 10.2336 48.9612 9.49886 48.9612 8.71544C48.9612 7.93201 48.6569 7.1972 48.1042 6.64652C47.3335 5.87831 46.2324 5.6269 45.2439 5.90271C45.1127 5.42295 44.8418 4.95745 44.4523 4.56765C43.8057 3.9207 42.9507 3.59665 42.1653 3.70058L41.8788 3.73858C42.0298 2.83274 41.751 1.87552 41.0614 1.18827C39.9197 0.0503607 38.0618 0.0503607 36.9199 1.18827L36.2753 1.83083C34.57 1.22713 32.8893 0.97897 31.3888 1.11391C29.6524 1.2701 28.1468 1.93849 27.0348 3.04674L1.97704 28.02C0.683705 29.3091 0 31.0954 0 33.1859C0 36.8064 2.0537 41.0145 5.49366 44.4429C7.38542 46.3283 9.86998 47.2708 12.3558 47.2707C12.6724 47.2707 12.9889 47.2552 13.3043 47.2245C13.2953 47.2464 13.2872 47.2688 13.2802 47.2919C13.1656 47.6715 13.3804 48.072 13.7598 48.1865C14.8219 48.5073 15.8394 48.6653 16.7841 48.6653C18.5314 48.6653 20.0277 48.1241 21.0849 47.0704L43.4341 24.7968C44.8448 24.5371 46.0719 23.9224 47.023 22.9746C48.3584 21.6436 49.0413 19.7906 48.9981 17.6156C48.9817 16.7876 48.8585 15.9266 48.6368 15.049ZM45.2334 7.46134C45.8145 7.09259 46.5897 7.16399 47.091 7.66356C47.3714 7.94292 47.5258 8.31654 47.5258 8.71544C47.5258 9.11442 47.3714 9.48805 47.091 9.7675L45.8273 11.027C45.6269 10.5616 45.3391 10.134 44.9731 9.76923C44.9599 9.75611 44.9451 9.74339 44.9316 9.73027L45.2334 7.46134ZM38.2206 15.5404L40.3231 15.2618C40.7198 15.2091 41.2422 15.5718 41.4432 16.0374C41.506 16.183 41.5305 16.3249 41.5141 16.4481L41.2492 18.439C41.1969 18.8319 41.4731 19.1929 41.866 19.2452C41.8981 19.2494 41.93 19.2515 41.9616 19.2515C42.3159 19.2515 42.6241 18.9891 42.6722 18.6283L42.9371 16.6375C42.9666 16.4162 42.9572 16.1869 42.9126 15.9584L44.6605 14.2164C44.8876 13.99 45.1794 13.8462 45.5043 13.8003C45.9794 13.7332 46.4428 13.8849 46.7754 14.2165C46.8473 14.2882 46.9107 14.3663 46.9655 14.4493C47.0578 14.7213 47.1386 14.9914 47.2098 15.2596C47.2098 15.2626 47.2102 15.2656 47.2102 15.2685C47.2102 15.6675 47.0557 16.0411 46.7754 16.3206L42.0741 21.0059C41.1783 21.0425 40.1303 20.8595 39.0205 20.4585C39.0848 20.3942 39.1391 20.318 39.1762 20.2289C39.8011 18.7319 39.4144 16.8849 38.2206 15.5404ZM41.0616 5.32639C41.0732 5.31481 41.0847 5.30266 41.0962 5.29069L42.354 5.12388C42.6944 5.07871 43.1091 5.25452 43.4369 5.58259C43.7625 5.90846 43.9371 6.31998 43.8923 6.65647L43.8495 6.97775C43.8495 6.97794 43.8495 6.97804 43.8495 6.97823L43.5976 8.87162C43.2544 8.73697 42.8926 8.64854 42.5205 8.6116C42.1263 8.57265 41.7745 8.86043 41.7354 9.25501C41.6962 9.6495 41.9843 10.001 42.3787 10.0403C42.8723 10.0893 43.3383 10.2761 43.7266 10.5808C43.8126 10.6484 43.8889 10.7154 43.9598 10.7861C44.4124 11.2372 44.681 11.8364 44.716 12.4733C44.717 12.4906 44.717 12.5081 44.7176 12.5254C44.3167 12.6687 43.9528 12.8953 43.6474 13.1997L42.2031 14.6391C41.6688 14.0875 40.9302 13.7697 40.2223 13.8315C40.3629 13.2404 40.4679 12.6087 40.534 11.9425C40.5877 11.3998 40.615 10.8403 40.6152 10.2793C40.6152 10.2524 40.6149 10.2257 40.6145 10.199L40.614 10.155C40.6084 9.32401 40.5442 8.5113 40.4232 7.73936C40.3424 7.22438 40.2371 6.73399 40.1093 6.27548L41.0616 5.32639ZM37.9333 2.20541C38.5164 1.6243 39.4651 1.6242 40.0482 2.20531C40.5796 2.73493 40.6311 3.58047 40.1681 4.17163C40.1234 4.22858 40.0854 4.27231 40.0482 4.30935L39.5625 4.79342C38.9804 3.58564 38.2114 2.89457 37.3327 2.80394L37.9333 2.20541ZM35.9587 5.49483C36.3229 4.71398 36.7728 4.22886 37.1328 4.22867H37.1329C37.5373 4.22877 38.1524 4.86673 38.6154 6.29204C38.7792 6.79611 38.9102 7.35788 39.0048 7.96168C39.1148 8.66337 39.1733 9.4045 39.1784 10.1647L39.1796 10.2789C39.1794 10.7929 39.1544 11.305 39.1054 11.8007C39.025 12.6111 38.8831 13.3597 38.6845 14.0307L36.7674 14.2847L37.9275 13.1285C38.4801 12.5778 38.7845 11.8431 38.7845 11.0598C38.7845 10.2764 38.4802 9.54155 37.9275 8.99077C37.1968 8.26247 36.1685 7.99871 35.2209 8.20869C35.3657 7.16227 35.6184 6.22457 35.9587 5.49483ZM30.1032 8.44919C30.1488 8.40373 30.2036 8.35798 30.2754 8.30535C30.8662 7.87239 31.7014 7.93421 32.2181 8.44919C32.7341 8.96331 32.7961 9.7942 32.3626 10.3816C32.3098 10.453 32.264 10.5075 32.2181 10.5531C31.9372 10.833 31.9366 11.2875 32.2163 11.5683C32.3565 11.709 32.5407 11.7794 32.7248 11.7794C32.9081 11.7794 33.0913 11.7096 33.2314 11.57C33.2559 11.5456 33.2802 11.5203 33.3043 11.4942C33.311 11.4869 33.3176 11.479 33.3243 11.4716C33.3418 11.4522 33.3592 11.4328 33.3766 11.4124C33.3769 11.412 33.3773 11.4116 33.3776 11.4112C33.3807 11.4089 33.3836 11.4058 33.3867 11.4035C33.4141 11.383 33.4409 11.3611 33.4659 11.3362L34.7987 10.008C34.8085 9.99834 34.819 9.98982 34.8292 9.98092L34.8626 9.95154C35.454 9.42594 36.3551 9.45044 36.914 10.0075C37.1944 10.287 37.3488 10.6606 37.3488 11.0596C37.3488 11.4586 37.1944 11.8321 36.914 12.1115L35.1379 13.8816C34.9985 13.8647 34.8579 13.8545 34.7169 13.8507C34.7014 13.8493 34.686 13.8479 34.6704 13.8476C34.6526 13.8474 34.6358 13.8475 34.6164 13.848C34.6153 13.848 34.6143 13.8482 34.6131 13.8482C34.5576 13.8482 34.5027 13.8489 34.4476 13.8508H34.4472C34.4471 13.8508 34.4468 13.8508 34.4467 13.8508H34.4461L34.4362 13.8512C34.4362 13.8512 34.4356 13.8512 34.4353 13.8512C34.4305 13.8514 34.4258 13.8515 34.421 13.8516C34.3991 13.8525 34.3771 13.8534 34.3552 13.8546L34.3546 13.8547C34.3281 13.8562 34.3017 13.8581 34.2754 13.8603C34.2435 13.8628 34.2118 13.8658 34.1801 13.869H34.1794L34.1606 13.8708C34.1601 13.8708 34.1595 13.8709 34.1595 13.8709L34.1584 13.871C34.1358 13.8731 34.1133 13.8754 34.0909 13.8782C34.0908 13.8782 34.0907 13.8782 34.0907 13.8782H34.0903C34.09 13.8782 34.0896 13.8782 34.0896 13.8782C34.0887 13.8783 34.088 13.8785 34.0873 13.8786C34.0255 13.8862 33.9643 13.8959 33.9033 13.9063C33.9032 13.9063 33.903 13.9064 33.903 13.9064H33.9028L33.8904 13.9083C33.8696 13.9116 33.8487 13.9148 33.8283 13.9187C33.4391 13.9933 33.1828 14.3694 33.2573 14.7587C33.323 15.1026 33.623 15.3421 33.9605 15.3421C34.005 15.3421 34.0503 15.338 34.0956 15.3293L34.1453 15.3214C34.1454 15.3214 34.1455 15.3213 34.1457 15.3213C34.1854 15.3145 34.2251 15.308 34.2654 15.303L34.2659 15.3029L34.3227 15.2972C34.3597 15.2935 34.3966 15.2902 34.4335 15.288C34.4351 15.2879 34.4367 15.2877 34.4384 15.2876C34.4548 15.2866 34.4715 15.286 34.4881 15.2855L34.4973 15.2852H34.4977C34.5311 15.2839 34.5647 15.2835 34.5982 15.2835C34.6037 15.2835 34.6096 15.2831 34.615 15.2832L34.6462 15.2836C34.8445 15.2868 35.0421 15.3094 35.2332 15.3505C35.5366 15.416 35.8357 15.5272 36.1225 15.6811C36.4394 15.8512 36.7314 16.0684 36.9907 16.3266C37.9445 17.2773 38.2904 18.623 37.8512 19.6753C37.8154 19.7611 37.7982 19.8498 37.7965 19.9375C37.666 19.8739 37.5354 19.8081 37.4056 19.7398C36.7593 19.3996 36.0066 19.4579 35.43 19.8255C34.9494 18.6694 34.2405 17.6077 33.3267 16.6969C31.1014 14.4792 29.54 11.7604 29.1043 9.4446L30.1032 8.44919ZM29.0899 7.43225L29.0298 7.49216C29.1269 6.82644 29.3696 6.28515 29.7541 5.87601C29.8316 5.89228 29.9128 5.89659 29.9959 5.88549L33.9864 5.35682C34.0678 5.3461 34.1577 5.35299 34.2532 5.3774C34.3109 5.39223 34.3692 5.41386 34.427 5.44047C34.1269 6.23615 33.9049 7.17471 33.7759 8.18878C33.6391 7.91392 33.4576 7.65763 33.2314 7.43225C32.2187 6.42277 30.583 6.30017 29.4267 7.14743C29.2968 7.24275 29.1865 7.33587 29.0899 7.43225ZM12.3557 45.836C10.2374 45.836 8.11909 45.0326 6.50696 43.426C3.33143 40.2612 1.43555 36.4331 1.43555 33.1859C1.43555 31.4854 1.97321 30.0507 2.99035 29.037L28.0482 4.06378C29.6227 2.49472 32.2192 2.10942 35.1333 2.96903L34.1788 3.92032C34.0504 3.91323 33.923 3.91706 33.7977 3.93362L31.0068 4.30332C30.9816 4.21221 30.9379 4.12455 30.8748 4.04617C30.6266 3.73724 30.1748 3.68785 29.8658 3.9362L28.8525 4.75035C28.8325 4.76633 28.8136 4.78346 28.7954 4.80146C27.9777 5.61637 27.5454 6.79094 27.5454 8.19806C27.5454 11.1366 29.3724 14.7828 32.3133 17.7137C33.8716 19.2669 34.7299 21.3358 34.7299 23.5394C34.7299 25.7456 33.87 27.8175 32.3084 29.3738L18.2134 43.4211C16.5979 45.0311 14.4768 45.8361 12.3557 45.836ZM46.0098 21.9576C44.7237 23.2393 42.7476 23.7484 40.4459 23.3915C40.0539 23.3312 39.6874 23.5992 39.6266 23.9909C39.5659 24.3826 39.8342 24.7495 40.2259 24.8103C40.5825 24.8657 40.9324 24.901 41.2764 24.9206L20.0717 46.0533C18.9269 47.1944 17.0125 47.5183 14.7597 46.9709C16.3975 46.5567 17.9478 45.7128 19.2269 44.438L33.3219 30.3907C35.1557 28.5632 36.1656 26.13 36.1656 23.5395C36.1656 22.8004 36.083 22.0743 35.9229 21.3713C35.9606 21.3291 35.9944 21.2823 36.0222 21.2302C36.1586 20.9734 36.4796 20.8752 36.7371 21.0108C37.0006 21.1496 37.2679 21.2808 37.5318 21.4008C39.0646 22.0976 40.5429 22.4446 41.8401 22.4446C42.0172 22.4446 42.1909 22.438 42.3609 22.4251C42.3693 22.4254 42.3778 22.4264 42.3862 22.4264C42.4404 22.4264 42.4945 22.4195 42.5475 22.4073C43.6491 22.2907 44.5856 21.8947 45.2627 21.2199C45.5436 20.9401 45.5442 20.4856 45.2645 20.2048C45.2027 20.1427 45.132 20.0951 45.0568 20.0604L47.56 17.5657C47.5607 17.5917 47.5625 17.6181 47.563 17.6442C47.5982 19.4183 47.0612 20.9099 46.0098 21.9576Z"/>
</mask>
<path d="M48.6368 15.049C48.6048 14.6143 48.4784 14.1993 48.2674 13.8275C48.0073 13.0877 47.6802 12.3417 47.2876 11.5982L48.1042 10.7844C48.6569 10.2336 48.9612 9.49886 48.9612 8.71544C48.9612 7.93201 48.6569 7.1972 48.1042 6.64652C47.3335 5.87831 46.2324 5.6269 45.2439 5.90271C45.1127 5.42295 44.8418 4.95745 44.4523 4.56765C43.8057 3.9207 42.9507 3.59665 42.1653 3.70058L41.8788 3.73858C42.0298 2.83274 41.751 1.87552 41.0614 1.18827C39.9197 0.0503607 38.0618 0.0503607 36.9199 1.18827L36.2753 1.83083C34.57 1.22713 32.8893 0.97897 31.3888 1.11391C29.6524 1.2701 28.1468 1.93849 27.0348 3.04674L1.97704 28.02C0.683705 29.3091 0 31.0954 0 33.1859C0 36.8064 2.0537 41.0145 5.49366 44.4429C7.38542 46.3283 9.86998 47.2708 12.3558 47.2707C12.6724 47.2707 12.9889 47.2552 13.3043 47.2245C13.2953 47.2464 13.2872 47.2688 13.2802 47.2919C13.1656 47.6715 13.3804 48.072 13.7598 48.1865C14.8219 48.5073 15.8394 48.6653 16.7841 48.6653C18.5314 48.6653 20.0277 48.1241 21.0849 47.0704L43.4341 24.7968C44.8448 24.5371 46.0719 23.9224 47.023 22.9746C48.3584 21.6436 49.0413 19.7906 48.9981 17.6156C48.9817 16.7876 48.8585 15.9266 48.6368 15.049ZM45.2334 7.46134C45.8145 7.09259 46.5897 7.16399 47.091 7.66356C47.3714 7.94292 47.5258 8.31654 47.5258 8.71544C47.5258 9.11442 47.3714 9.48805 47.091 9.7675L45.8273 11.027C45.6269 10.5616 45.3391 10.134 44.9731 9.76923C44.9599 9.75611 44.9451 9.74339 44.9316 9.73027L45.2334 7.46134ZM38.2206 15.5404L40.3231 15.2618C40.7198 15.2091 41.2422 15.5718 41.4432 16.0374C41.506 16.183 41.5305 16.3249 41.5141 16.4481L41.2492 18.439C41.1969 18.8319 41.4731 19.1929 41.866 19.2452C41.8981 19.2494 41.93 19.2515 41.9616 19.2515C42.3159 19.2515 42.6241 18.9891 42.6722 18.6283L42.9371 16.6375C42.9666 16.4162 42.9572 16.1869 42.9126 15.9584L44.6605 14.2164C44.8876 13.99 45.1794 13.8462 45.5043 13.8003C45.9794 13.7332 46.4428 13.8849 46.7754 14.2165C46.8473 14.2882 46.9107 14.3663 46.9655 14.4493C47.0578 14.7213 47.1386 14.9914 47.2098 15.2596C47.2098 15.2626 47.2102 15.2656 47.2102 15.2685C47.2102 15.6675 47.0557 16.0411 46.7754 16.3206L42.0741 21.0059C41.1783 21.0425 40.1303 20.8595 39.0205 20.4585C39.0848 20.3942 39.1391 20.318 39.1762 20.2289C39.8011 18.7319 39.4144 16.8849 38.2206 15.5404ZM41.0616 5.32639C41.0732 5.31481 41.0847 5.30266 41.0962 5.29069L42.354 5.12388C42.6944 5.07871 43.1091 5.25452 43.4369 5.58259C43.7625 5.90846 43.9371 6.31998 43.8923 6.65647L43.8495 6.97775C43.8495 6.97794 43.8495 6.97804 43.8495 6.97823L43.5976 8.87162C43.2544 8.73697 42.8926 8.64854 42.5205 8.6116C42.1263 8.57265 41.7745 8.86043 41.7354 9.25501C41.6962 9.6495 41.9843 10.001 42.3787 10.0403C42.8723 10.0893 43.3383 10.2761 43.7266 10.5808C43.8126 10.6484 43.8889 10.7154 43.9598 10.7861C44.4124 11.2372 44.681 11.8364 44.716 12.4733C44.717 12.4906 44.717 12.5081 44.7176 12.5254C44.3167 12.6687 43.9528 12.8953 43.6474 13.1997L42.2031 14.6391C41.6688 14.0875 40.9302 13.7697 40.2223 13.8315C40.3629 13.2404 40.4679 12.6087 40.534 11.9425C40.5877 11.3998 40.615 10.8403 40.6152 10.2793C40.6152 10.2524 40.6149 10.2257 40.6145 10.199L40.614 10.155C40.6084 9.32401 40.5442 8.5113 40.4232 7.73936C40.3424 7.22438 40.2371 6.73399 40.1093 6.27548L41.0616 5.32639ZM37.9333 2.20541C38.5164 1.6243 39.4651 1.6242 40.0482 2.20531C40.5796 2.73493 40.6311 3.58047 40.1681 4.17163C40.1234 4.22858 40.0854 4.27231 40.0482 4.30935L39.5625 4.79342C38.9804 3.58564 38.2114 2.89457 37.3327 2.80394L37.9333 2.20541ZM35.9587 5.49483C36.3229 4.71398 36.7728 4.22886 37.1328 4.22867H37.1329C37.5373 4.22877 38.1524 4.86673 38.6154 6.29204C38.7792 6.79611 38.9102 7.35788 39.0048 7.96168C39.1148 8.66337 39.1733 9.4045 39.1784 10.1647L39.1796 10.2789C39.1794 10.7929 39.1544 11.305 39.1054 11.8007C39.025 12.6111 38.8831 13.3597 38.6845 14.0307L36.7674 14.2847L37.9275 13.1285C38.4801 12.5778 38.7845 11.8431 38.7845 11.0598C38.7845 10.2764 38.4802 9.54155 37.9275 8.99077C37.1968 8.26247 36.1685 7.99871 35.2209 8.20869C35.3657 7.16227 35.6184 6.22457 35.9587 5.49483ZM30.1032 8.44919C30.1488 8.40373 30.2036 8.35798 30.2754 8.30535C30.8662 7.87239 31.7014 7.93421 32.2181 8.44919C32.7341 8.96331 32.7961 9.7942 32.3626 10.3816C32.3098 10.453 32.264 10.5075 32.2181 10.5531C31.9372 10.833 31.9366 11.2875 32.2163 11.5683C32.3565 11.709 32.5407 11.7794 32.7248 11.7794C32.9081 11.7794 33.0913 11.7096 33.2314 11.57C33.2559 11.5456 33.2802 11.5203 33.3043 11.4942C33.311 11.4869 33.3176 11.479 33.3243 11.4716C33.3418 11.4522 33.3592 11.4328 33.3766 11.4124C33.3769 11.412 33.3773 11.4116 33.3776 11.4112C33.3807 11.4089 33.3836 11.4058 33.3867 11.4035C33.4141 11.383 33.4409 11.3611 33.4659 11.3362L34.7987 10.008C34.8085 9.99834 34.819 9.98982 34.8292 9.98092L34.8626 9.95154C35.454 9.42594 36.3551 9.45044 36.914 10.0075C37.1944 10.287 37.3488 10.6606 37.3488 11.0596C37.3488 11.4586 37.1944 11.8321 36.914 12.1115L35.1379 13.8816C34.9985 13.8647 34.8579 13.8545 34.7169 13.8507C34.7014 13.8493 34.686 13.8479 34.6704 13.8476C34.6526 13.8474 34.6358 13.8475 34.6164 13.848C34.6153 13.848 34.6143 13.8482 34.6131 13.8482C34.5576 13.8482 34.5027 13.8489 34.4476 13.8508H34.4472C34.4471 13.8508 34.4468 13.8508 34.4467 13.8508H34.4461L34.4362 13.8512C34.4362 13.8512 34.4356 13.8512 34.4353 13.8512C34.4305 13.8514 34.4258 13.8515 34.421 13.8516C34.3991 13.8525 34.3771 13.8534 34.3552 13.8546L34.3546 13.8547C34.3281 13.8562 34.3017 13.8581 34.2754 13.8603C34.2435 13.8628 34.2118 13.8658 34.1801 13.869H34.1794L34.1606 13.8708C34.1601 13.8708 34.1595 13.8709 34.1595 13.8709L34.1584 13.871C34.1358 13.8731 34.1133 13.8754 34.0909 13.8782C34.0908 13.8782 34.0907 13.8782 34.0907 13.8782H34.0903C34.09 13.8782 34.0896 13.8782 34.0896 13.8782C34.0887 13.8783 34.088 13.8785 34.0873 13.8786C34.0255 13.8862 33.9643 13.8959 33.9033 13.9063C33.9032 13.9063 33.903 13.9064 33.903 13.9064H33.9028L33.8904 13.9083C33.8696 13.9116 33.8487 13.9148 33.8283 13.9187C33.4391 13.9933 33.1828 14.3694 33.2573 14.7587C33.323 15.1026 33.623 15.3421 33.9605 15.3421C34.005 15.3421 34.0503 15.338 34.0956 15.3293L34.1453 15.3214C34.1454 15.3214 34.1455 15.3213 34.1457 15.3213C34.1854 15.3145 34.2251 15.308 34.2654 15.303L34.2659 15.3029L34.3227 15.2972C34.3597 15.2935 34.3966 15.2902 34.4335 15.288C34.4351 15.2879 34.4367 15.2877 34.4384 15.2876C34.4548 15.2866 34.4715 15.286 34.4881 15.2855L34.4973 15.2852H34.4977C34.5311 15.2839 34.5647 15.2835 34.5982 15.2835C34.6037 15.2835 34.6096 15.2831 34.615 15.2832L34.6462 15.2836C34.8445 15.2868 35.0421 15.3094 35.2332 15.3505C35.5366 15.416 35.8357 15.5272 36.1225 15.6811C36.4394 15.8512 36.7314 16.0684 36.9907 16.3266C37.9445 17.2773 38.2904 18.623 37.8512 19.6753C37.8154 19.7611 37.7982 19.8498 37.7965 19.9375C37.666 19.8739 37.5354 19.8081 37.4056 19.7398C36.7593 19.3996 36.0066 19.4579 35.43 19.8255C34.9494 18.6694 34.2405 17.6077 33.3267 16.6969C31.1014 14.4792 29.54 11.7604 29.1043 9.4446L30.1032 8.44919ZM29.0899 7.43225L29.0298 7.49216C29.1269 6.82644 29.3696 6.28515 29.7541 5.87601C29.8316 5.89228 29.9128 5.89659 29.9959 5.88549L33.9864 5.35682C34.0678 5.3461 34.1577 5.35299 34.2532 5.3774C34.3109 5.39223 34.3692 5.41386 34.427 5.44047C34.1269 6.23615 33.9049 7.17471 33.7759 8.18878C33.6391 7.91392 33.4576 7.65763 33.2314 7.43225C32.2187 6.42277 30.583 6.30017 29.4267 7.14743C29.2968 7.24275 29.1865 7.33587 29.0899 7.43225ZM12.3557 45.836C10.2374 45.836 8.11909 45.0326 6.50696 43.426C3.33143 40.2612 1.43555 36.4331 1.43555 33.1859C1.43555 31.4854 1.97321 30.0507 2.99035 29.037L28.0482 4.06378C29.6227 2.49472 32.2192 2.10942 35.1333 2.96903L34.1788 3.92032C34.0504 3.91323 33.923 3.91706 33.7977 3.93362L31.0068 4.30332C30.9816 4.21221 30.9379 4.12455 30.8748 4.04617C30.6266 3.73724 30.1748 3.68785 29.8658 3.9362L28.8525 4.75035C28.8325 4.76633 28.8136 4.78346 28.7954 4.80146C27.9777 5.61637 27.5454 6.79094 27.5454 8.19806C27.5454 11.1366 29.3724 14.7828 32.3133 17.7137C33.8716 19.2669 34.7299 21.3358 34.7299 23.5394C34.7299 25.7456 33.87 27.8175 32.3084 29.3738L18.2134 43.4211C16.5979 45.0311 14.4768 45.8361 12.3557 45.836ZM46.0098 21.9576C44.7237 23.2393 42.7476 23.7484 40.4459 23.3915C40.0539 23.3312 39.6874 23.5992 39.6266 23.9909C39.5659 24.3826 39.8342 24.7495 40.2259 24.8103C40.5825 24.8657 40.9324 24.901 41.2764 24.9206L20.0717 46.0533C18.9269 47.1944 17.0125 47.5183 14.7597 46.9709C16.3975 46.5567 17.9478 45.7128 19.2269 44.438L33.3219 30.3907C35.1557 28.5632 36.1656 26.13 36.1656 23.5395C36.1656 22.8004 36.083 22.0743 35.9229 21.3713C35.9606 21.3291 35.9944 21.2823 36.0222 21.2302C36.1586 20.9734 36.4796 20.8752 36.7371 21.0108C37.0006 21.1496 37.2679 21.2808 37.5318 21.4008C39.0646 22.0976 40.5429 22.4446 41.8401 22.4446C42.0172 22.4446 42.1909 22.438 42.3609 22.4251C42.3693 22.4254 42.3778 22.4264 42.3862 22.4264C42.4404 22.4264 42.4945 22.4195 42.5475 22.4073C43.6491 22.2907 44.5856 21.8947 45.2627 21.2199C45.5436 20.9401 45.5442 20.4856 45.2645 20.2048C45.2027 20.1427 45.132 20.0951 45.0568 20.0604L47.56 17.5657C47.5607 17.5917 47.5625 17.6181 47.563 17.6442C47.5982 19.4183 47.0612 20.9099 46.0098 21.9576Z" fill="black" stroke="black" stroke-width="2" mask="url(#path-10-inside-1_337_197)"/>
</g>
<defs>
<clipPath id="clip0_337_197">
<rect width="49" height="49" fill="white"/>
</clipPath>
</defs>
</svg>
