<svg width="48" height="48" viewBox="0 0 48 48" fill="none" xmlns="http://www.w3.org/2000/svg">
<g clip-path="url(#clip0_337_227)">
<path d="M23.5 47.5H13C-0.200038 35.1 6.16663 27.6667 11 25.5H15V23C14.3333 22 14.3 17.9 19.5 9.50001C24.7 1.10001 34 6.00001 38 9.50001L44 12L42.5 14.5L40 16.5C39.8333 17.3333 39.4 20.3 39 25.5C38 35 33.3333 44.1667 30.5 47.5H23.5Z" fill="#FDD835"/>
<path d="M0 32.8C0.00589961 37.1205 2.49638 41.0524 6.4 42.904V45.6C6.4 46.9255 7.47452 48 8.8 48H34.648C36.2821 47.9987 37.6528 46.7664 37.8272 45.1416L40.7728 17.8904L47.5568 8.1992C48.2937 7.1621 48.0933 5.73014 47.1 4.9352L45.5872 3.7264C45.0752 3.31604 44.4172 3.13373 43.767 3.22203C43.1168 3.31034 42.5312 3.66154 42.1472 4.1936L38.9992 8.64L34.7592 1.2128C34.331 0.463444 33.5343 0.00071044 32.6712 0H21.728C20.8683 0.002418 20.0753 0.46359 19.648 1.2096L15.408 8.636L12.2464 4.1848C11.8614 3.65556 11.2763 3.30714 10.6276 3.22068C9.97885 3.13422 9.323 3.31727 8.8128 3.7272L7.3016 4.9336C6.30862 5.72686 6.10621 7.1567 6.84 8.1944L13.6272 17.8904L14.3952 24.9856C12.9787 24.6853 11.5073 24.7735 10.1368 25.2408C8.28124 24.4646 6.15144 24.7478 4.56328 25.9821C2.97511 27.2163 2.17475 29.2102 2.4688 31.2H1.6C0.716344 31.2 0 31.9163 0 32.8H0ZM1.6 32.8H27.2C27.1943 38.0996 22.8996 42.3943 17.6 42.4H11.2C5.90044 42.3943 1.60573 38.0996 1.6 32.8ZM7.2 30.4C7.2 29.9582 7.55817 29.6 8 29.6C8.44183 29.6 8.8 29.9582 8.8 30.4C8.8 30.8418 8.44183 31.2 8 31.2C7.55817 31.2 7.2 30.8418 7.2 30.4ZM13.5624 29.7656C14.3973 29.9716 15.1245 30.4835 15.6 31.2H13.5312C13.6112 30.7259 13.6217 30.2427 13.5624 29.7656V29.7656ZM24.728 31.2H23.0856C23.4012 30.0093 23.0004 28.7434 22.0569 27.9514C21.1134 27.1593 19.7973 26.9837 18.6792 27.5008C18.294 27.0798 17.8685 26.6974 17.4088 26.3592C19.0079 25.3367 21.0594 25.3525 22.6425 26.3996C24.2256 27.4466 25.0431 29.3283 24.728 31.2ZM19.68 28.836C20.2963 28.7084 20.9299 28.9553 21.2974 29.4661C21.665 29.977 21.6976 30.6562 21.3808 31.2H20.652C20.4502 30.3671 20.1224 29.5699 19.68 28.836ZM8 45.6V43.528C9.038 43.8403 10.116 43.9993 11.2 44C17.4784 44 17.9152 44.0576 19.2 43.872V45.6C19.2 46.0418 18.8418 46.4 18.4 46.4H8.8C8.35817 46.4 8 46.0418 8 45.6V45.6ZM36.24 44.9672C36.1544 45.7819 35.4672 46.4004 34.648 46.4H20.6528C20.8496 45.8472 20.8 45.7208 20.8 43.528C25.5416 42.1088 28.7925 37.7494 28.8 32.8C28.8 31.9163 28.0837 31.2 27.2 31.2H26.3424C26.6623 28.6283 25.3998 26.1176 23.1447 24.8407C20.8896 23.5639 18.087 23.773 16.0464 25.3704L15.2912 18.4H39.1088L36.24 44.9672ZM39.2 13.6V16.8H15.2V13.6H16.6744C17.5329 13.5986 18.3256 13.1397 18.7544 12.396L22.888 5.2C23.0321 4.95247 23.2968 4.80014 23.5832 4.8H30.8168C31.1029 4.79972 31.3674 4.95224 31.5104 5.2L35.6456 12.4C36.0757 13.142 36.868 13.5991 37.7256 13.6H39.2ZM43.4464 5.1272C43.5755 4.95233 43.7701 4.83751 43.9856 4.80914C44.2011 4.78077 44.4189 4.8413 44.5888 4.9768L46.1032 6.1864C46.4358 6.45359 46.5002 6.93474 46.2496 7.28L40.8 15.0624C40.8 11.3872 40.9824 12.1072 39.8744 10.168L43.4464 5.1272ZM21.0336 2C21.1768 1.75199 21.4416 1.59943 21.728 1.6H32.6712C32.9579 1.59915 33.2231 1.75174 33.3664 2L39.0784 12L37.7256 12C37.4395 12.0003 37.175 11.8478 37.032 11.6L32.8976 4.404C32.4678 3.66181 31.6753 3.2046 30.8176 3.204H23.5832C22.7249 3.20609 21.9325 3.66475 21.5032 4.408L17.3672 11.6C17.2243 11.8475 16.9602 12 16.6744 12L15.3216 12L21.0336 2ZM8.2984 6.1848C9.9224 4.8904 9.9784 4.752 10.4184 4.808C10.6295 4.83548 10.8203 4.94751 10.9472 5.1184L14.5256 10.168C13.416 12.1096 13.6 11.4064 13.6 15.0624L8.148 7.2728C7.90193 6.92757 7.9679 6.45033 8.2984 6.1848V6.1848ZM18.9936 31.2H17.3864C16.6542 29.4179 14.9863 28.1954 13.0664 28.0336C12.7895 27.4533 12.415 26.9248 11.9592 26.4712C15.1443 26.1177 18.1186 28.1171 18.9936 31.2V31.2ZM8 26.4C9.19995 26.4014 10.3357 26.942 11.0935 27.8724C11.8512 28.8029 12.1505 30.0247 11.9088 31.2H10.2528C10.6081 30.2076 10.2721 29.0996 9.42549 28.4717C8.5789 27.8437 7.42111 27.8437 6.57451 28.4717C5.72792 29.0996 5.39194 30.2076 5.7472 31.2H4.0912C3.847 30.0243 4.14543 28.8012 4.90366 27.8701C5.66188 26.939 6.79922 26.399 8 26.4V26.4Z" fill="black"/>
</g>
<defs>
<clipPath id="clip0_337_227">
<rect width="48" height="48" fill="white"/>
</clipPath>
</defs>
</svg>
