<svg width="50" height="50" viewBox="0 0 50 50" fill="none" xmlns="http://www.w3.org/2000/svg">
<g id="dish">
<path id="Oval 4" fill-rule="evenodd" clip-rule="evenodd" d="M25.5 50C37.3741 50 47 40.3741 47 28.5C47 16.6259 37.3741 7 25.5 7C13.6259 7 4 16.6259 4 28.5C4 40.3741 13.6259 50 25.5 50Z" fill="#FDD835"/>
<path id="Shape" fill-rule="evenodd" clip-rule="evenodd" d="M35.0568 14.6563L35.5822 16.4584C36.0243 17.9781 36.1171 19.585 35.8531 21.149C35.6127 22.4645 34.8118 23.5951 33.6761 24.2218L34.2678 37.9885C34.3352 38.7351 34.0974 39.4765 33.6131 40.0311C33.5555 40.0967 33.4952 40.1596 33.4321 40.2197C32.2669 41.3298 30.4587 41.2453 29.3934 40.0311C28.8981 39.4603 28.6599 38.6965 28.7387 37.9314L29.3271 24.2235C28.19 23.5971 27.3877 22.4658 27.1469 21.149C26.8829 19.585 26.9757 17.9781 27.4178 16.4584L27.9432 14.6563C28.3187 13.5047 29.1865 12.6004 30.2915 12.2092C32.2559 11.5137 34.3894 12.6093 35.0568 14.6563ZM32.5427 22.8897C33.4167 22.5745 34.0637 21.7983 34.2409 20.8522C34.4594 19.5538 34.3822 18.2199 34.0158 16.9581L33.4904 15.1552C33.2754 14.5497 32.8173 14.0722 32.2362 13.8482C31.1369 13.4246 29.9162 14.0097 29.5097 15.1552L28.9842 16.9581C28.6174 18.2198 28.5403 19.5538 28.7592 20.8522C28.9364 21.7983 29.5833 22.5745 30.4574 22.8897C30.7891 23.0197 31.0028 23.3574 30.9869 23.7263L30.3698 38.067C30.3284 38.3668 30.4165 38.6704 30.6104 38.896C31.1032 39.4044 31.8968 39.4044 32.3896 38.896C32.5744 38.6872 32.6638 38.4057 32.6351 38.1233L32.0132 23.7263C31.9972 23.3574 32.2109 23.0197 32.5427 22.8897Z" fill="black"/>
<path id="Shape_2" d="M22.1818 12C21.73 12 21.3636 12.382 21.3636 12.8531V20.1774L19.1488 22.4866C18.985 22.6568 18.8978 22.8915 18.9091 23.1324L19.625 38.0608C19.6421 38.3828 19.53 38.6976 19.3157 38.9301C18.8679 39.4012 18.1385 39.4046 17.6865 38.9376C17.6841 38.9351 17.6817 38.9326 17.6794 38.9301C17.465 38.6976 17.353 38.3828 17.3701 38.0608L18.0909 23.1324C18.1024 22.8916 18.0155 22.657 17.852 22.4866L15.6364 20.1774V12.8531C15.6364 12.382 15.27 12 14.8182 12C14.3663 12 14 12.382 14 12.8531V20.5306C14 20.7568 14.0863 20.9737 14.2397 21.1337L16.4374 23.4258L15.7395 37.9781C15.6652 39.5677 16.8409 40.9191 18.3655 40.9965C19.8901 41.0739 21.1863 39.8481 21.2605 38.2585C21.2649 38.1651 21.2649 38.0716 21.2605 37.9782L20.5626 23.4259L22.7603 21.1338C22.9137 20.9738 23 20.7569 23 20.5307V12.8532C23 12.382 22.6337 12 22.1818 12Z" fill="black"/>
<path id="Shape_3" d="M18 12C17.4477 12 17 12.3582 17 12.8V19.2C17 19.6418 17.4477 20 18 20C18.5523 20 19 19.6418 19 19.2V12.8C19 12.3582 18.5523 12 18 12Z" fill="black"/>
<path id="Shape_4" d="M20 12C19.4477 12 19 12.3582 19 12.8V19.2C19 19.6418 19.4477 20 20 20C20.5523 20 21 19.6418 21 19.2V12.8C21 12.3582 20.5523 12 20 12Z" fill="black"/>
<path id="Shape_5" fill-rule="evenodd" clip-rule="evenodd" d="M0 25C0 11.1929 11.1929 0 25 0C38.8006 0.015625 49.9844 11.1994 50 25C50 38.8071 38.8071 50 25 50C11.1929 50 0 38.8071 0 25ZM1.66669 25C1.66669 37.8866 12.1134 48.3333 25 48.3333C37.8805 48.3186 48.3187 37.8805 48.3334 25C48.3334 12.1133 37.8867 1.66663 25 1.66663C12.1134 1.66663 1.66669 12.1133 1.66669 25Z" fill="black"/>
<path id="Shape_6" d="M27.9956 40.847C27.946 40.3314 27.4935 39.9542 26.9851 40.0045C26.9731 40.0057 26.9612 40.0071 26.9493 40.0087C25.6508 40.1612 24.3353 40.1612 23.0331 40.0078C22.5255 39.9474 22.0659 40.3157 22.0064 40.8305C21.9468 41.3452 22.31 41.8113 22.8176 41.8717C24.2618 42.0428 25.7206 42.0428 27.1648 41.8717C27.6732 41.8215 28.0452 41.3627 27.9956 40.847Z" fill="black"/>
<path id="Shape_7" d="M37.2828 14.2967C37.0023 13.9454 36.5038 13.8994 36.1693 14.1942C36.1683 14.1951 36.1672 14.1962 36.166 14.1971C35.8323 14.4927 35.7898 15.0164 36.0711 15.3669C40.8368 21.3095 40.4722 30.0967 35.2325 35.5814C34.9233 35.9051 34.9224 36.4309 35.2305 36.7558C35.5387 37.0806 36.0393 37.0815 36.3486 36.7578C42.1715 30.6644 42.5776 20.9003 37.2828 14.2967Z" fill="black"/>
<g id="Group">
<path id="Shape_8" d="M19.8759 10.6006C19.8747 10.6006 19.8736 10.6003 19.8724 10.6003C19.8706 10.6003 19.8688 10.6006 19.8667 10.6006H19.8759Z" fill="black"/>
<path id="Shape_9" d="M29.35 8.45172C26.1055 7.69485 22.7027 7.89829 19.5778 9.03596C19.1486 9.19304 18.9316 9.6591 19.093 10.0768C19.2146 10.3916 19.5238 10.6 19.8693 10.6003C19.9686 10.5998 20.067 10.5821 20.1598 10.5479C22.9739 9.52354 26.0381 9.34061 28.9598 10.0226C29.4055 10.1275 29.8541 9.86091 29.9618 9.42708C30.0695 8.99324 29.7957 8.55657 29.35 8.45172Z" fill="black"/>
</g>
<path id="Shape_10" d="M13.7669 35.586C11.0855 32.8024 9.58275 29.0216 9.59189 25.0816C9.58404 21.9339 10.5429 18.8657 12.3288 16.3242C12.5928 15.959 12.5221 15.4405 12.1709 15.166C11.8198 14.8915 11.3212 14.965 11.0572 15.3302C11.0525 15.3367 11.0479 15.3432 11.0435 15.3498C6.44485 21.9241 7.12152 30.9987 12.6398 36.7572C12.9508 37.0808 13.4553 37.081 13.7665 36.7576C14.0777 36.4342 14.0779 35.9096 13.7669 35.586Z" fill="black"/>
</g>
</svg>
