<svg width="45" height="46" viewBox="0 0 45 46" fill="none" xmlns="http://www.w3.org/2000/svg">
<g id="cheeseburger">
<path id="Rectangle 6" fill-rule="evenodd" clip-rule="evenodd" d="M7.19007 13.7534C14.7901 5.34726 27.0023 3.37552 37.3801 10.923C44.9774 16.4483 43.4737 31.0746 42.1225 38.5157C41.6378 41.185 39.2686 43 36.5556 43H10.2529C7.59669 43 5.26007 41.2542 4.72203 38.6531C3.36287 32.0821 1.76676 19.7519 7.19007 13.7534Z" fill="#FDD835"/>
<path id="Shape" fill-rule="evenodd" clip-rule="evenodd" d="M43.1564 35.9262V33.2728C44.1205 32.5839 44.7508 31.4565 44.7508 30.184C44.7508 28.9114 44.1205 27.7839 43.1564 27.095V24.2495V21.2364C44.2141 20.8183 44.9648 19.7863 44.9648 18.5816C44.9647 8.3357 36.629 0 26.3831 0H18.602C8.35597 0 0.0202637 8.3357 0.0202637 18.5817C0.0202637 19.7863 0.770846 20.8184 1.82867 21.2365V24.2496V27.0951C0.864451 27.7839 0.234232 28.9114 0.234232 30.184C0.234232 31.4565 0.86456 32.584 1.82867 33.2728V35.9262C0.74507 36.5888 0.0202637 37.7831 0.0202637 39.1436C0.0202637 42.6055 2.8367 45.4219 6.29864 45.4219H38.6864C42.1483 45.4219 44.9648 42.6055 44.9648 39.1436C44.9647 37.7831 44.24 36.5888 43.1564 35.9262ZM25.37 23.485V21.4358H33.4525V23.485H25.37ZM3.35767 21.4358V23.485H23.8409V21.4358H3.35767ZM34.9817 21.4358H41.6273V23.485H34.9817V21.4358ZM26.3831 1.52911H18.602C9.19911 1.52911 1.54944 9.17889 1.54944 18.5817C1.54944 19.3122 2.14383 19.9066 2.87432 19.9066H24.6056H34.2173H42.1108C42.8413 19.9066 43.4357 19.3122 43.4357 18.5817C43.4357 9.17889 35.7859 1.52911 26.3831 1.52911ZM3.35767 26.4101V25.0142H24.6054H34.2171H41.6272V26.4101H17.431C17.2283 26.4101 17.0337 26.4906 16.8903 26.6341L13.9028 29.6216L10.9153 26.6341C10.7719 26.4906 10.5774 26.4101 10.3746 26.4101H3.35767ZM10.0581 27.9393H3.73578C2.62487 28.0839 1.76343 29.0343 1.76343 30.184C1.76343 31.4334 2.77986 32.4498 4.02927 32.4498H40.9558C42.2052 32.4498 43.2216 31.4334 43.2216 30.184C43.2216 29.0343 42.3602 28.0839 41.2493 27.9393H17.7477L14.4436 31.2436C14.3002 31.387 14.1058 31.4675 13.9029 31.4675C13.7001 31.4675 13.5057 31.387 13.3623 31.2436L10.0581 27.9393ZM3.35767 35.3751V33.979H41.6271V35.3751H34.6101C34.4073 35.3751 34.2128 35.4556 34.0694 35.599L31.0818 38.5865L28.0943 35.599C27.9509 35.4556 27.7565 35.3751 27.5537 35.3751H3.35767ZM6.29869 43.8928H38.6865C41.3052 43.8928 43.4356 41.7623 43.4356 39.1436C43.4356 37.9088 42.4311 36.9042 41.1962 36.9042H34.927L31.6228 40.2083C31.4735 40.3575 31.2777 40.4322 31.0821 40.4322C30.8864 40.4322 30.6908 40.3576 30.5415 40.2083L27.2373 36.9042H3.78884C2.55407 36.9042 1.54944 37.9087 1.54944 39.1436C1.54944 41.7623 3.67995 43.8928 6.29869 43.8928Z" fill="black"/>
<path id="Shape_2" d="M8.47087 11.6869C8.6666 11.6869 8.86222 11.6122 9.01152 11.463L10.6499 9.82464C10.9485 9.52614 10.9485 9.04195 10.6499 8.74344C10.3514 8.44493 9.86718 8.44493 9.56867 8.74344L7.93032 10.3818C7.63171 10.6803 7.63171 11.1645 7.93032 11.463C8.07952 11.6122 8.27525 11.6869 8.47087 11.6869Z" fill="black"/>
<path id="Shape_3" d="M17.2725 11.6869C17.4683 11.6869 17.6639 11.6122 17.8132 11.463L19.4515 9.82464C19.7502 9.52614 19.7502 9.04195 19.4515 8.74344C19.153 8.44493 18.6688 8.44493 18.3703 8.74344L16.732 10.3818C16.4334 10.6803 16.4334 11.1645 16.732 11.463C16.8812 11.6122 17.0768 11.6869 17.2725 11.6869Z" fill="black"/>
<path id="Shape_4" d="M26.074 11.6869C26.2698 11.6869 26.4654 11.6122 26.6147 11.463L28.2531 9.82464C28.5517 9.52614 28.5517 9.04195 28.2531 8.74344C27.9545 8.44493 27.4704 8.44493 27.1719 8.74344L25.5335 10.3818C25.2349 10.6803 25.2349 11.1645 25.5335 11.463C25.6827 11.6122 25.8784 11.6869 26.074 11.6869Z" fill="black"/>
<path id="Shape_5" d="M34.8756 11.6869C35.0713 11.6869 35.2669 11.6122 35.4162 11.463L37.0546 9.82464C37.3532 9.52614 37.3532 9.04195 37.0546 8.74344C36.7561 8.44493 36.2719 8.44493 35.9734 8.74344L34.335 10.3818C34.0364 10.6803 34.0364 11.1645 34.335 11.463C34.4842 11.6122 34.68 11.6869 34.8756 11.6869Z" fill="black"/>
<path id="Shape_6" d="M31.5726 6.60835C31.7219 6.75766 31.9175 6.83226 32.1132 6.83226C32.309 6.83226 32.5046 6.75755 32.6539 6.60835C32.9525 6.30984 32.9525 5.82565 32.6539 5.52715L31.0156 3.8888C30.717 3.59029 30.2329 3.59029 29.9344 3.8888C29.6357 4.1873 29.6357 4.67149 29.9344 4.97L31.5726 6.60835Z" fill="black"/>
<path id="Shape_7" d="M22.771 6.60835C22.9204 6.75766 23.116 6.83226 23.3117 6.83226C23.5074 6.83226 23.703 6.75755 23.8524 6.60835C24.151 6.30984 24.151 5.82565 23.8524 5.52715L22.214 3.8888C21.9155 3.59029 21.4313 3.59029 21.1328 3.8888C20.8342 4.1873 20.8342 4.67149 21.1328 4.97L22.771 6.60835Z" fill="black"/>
<path id="Shape_8" d="M13.9695 6.60835C14.1188 6.75766 14.3144 6.83226 14.5102 6.83226C14.7059 6.83226 14.9015 6.75755 15.0508 6.60835C15.3494 6.30984 15.3494 5.82565 15.0508 5.52715L13.4125 3.8888C13.114 3.59029 12.6298 3.59029 12.3313 3.8888C12.0326 4.1873 12.0326 4.67149 12.3313 4.97L13.9695 6.60835Z" fill="black"/>
</g>
</svg>
