<svg width="47" height="47" viewBox="0 0 47 47" fill="none" xmlns="http://www.w3.org/2000/svg">
<path fill-rule="evenodd" clip-rule="evenodd" d="M11.0001 19C11.0001 19 14 18 23 17C28.784 15.2388 33.748 12.7239 38.8544 13.68C40.5846 14.004 41.7786 15.4865 41.8034 17.2466C41.8809 22.742 40.2122 33.0152 39.2174 38.6159C38.7977 40.9791 36.98 42.8263 34.6127 43.2227C28.634 44.224 17.2224 45.6779 11 43.5C2.31028 40.4586 11.0001 19 11.0001 19Z" fill="#FDD835"/>
<path d="M29.5586 38.1875C29.5586 41.4325 27.663 44.0625 24.418 44.0625H12.3008C9.05576 44.0625 7.16016 41.4325 7.16016 38.1875" stroke="black" stroke-width="2" stroke-miterlimit="10" stroke-linecap="round"/>
<path d="M30.8438 30.8438C32.4658 30.8438 33.7812 32.4878 33.7812 34.5156C33.7812 36.5434 32.4658 38.1875 30.8438 38.1875H5.875C4.25295 38.1875 2.9375 36.5434 2.9375 34.5156C2.9375 32.4878 4.25295 30.8438 5.875 30.8438" stroke="black" stroke-width="2" stroke-miterlimit="10" stroke-linecap="round"/>
<path d="M31.5781 30.8437H16.4601C16.2656 30.8438 16.0791 30.9211 15.9414 31.0586L13.4785 33.5215C13.4444 33.5556 13.4039 33.5827 13.3594 33.6012C13.3148 33.6196 13.267 33.6292 13.2188 33.6292C13.1705 33.6292 13.1227 33.6196 13.0781 33.6012C13.0336 33.5827 12.9931 33.5556 12.959 33.5215L10.4961 31.0586C10.3584 30.9211 10.1719 30.8438 9.9774 30.8437H5.14062C4.55632 30.8437 3.99595 30.6116 3.58278 30.1985C3.16961 29.7853 2.9375 29.2249 2.9375 28.6406V28.6406C2.9375 28.0563 3.16961 27.4959 3.58278 27.0828C3.99595 26.6696 4.55632 26.4375 5.14062 26.4375H31.5781C32.1624 26.4375 32.7228 26.6696 33.136 27.0828C33.5491 27.4959 33.7812 28.0563 33.7812 28.6406C33.7812 29.2249 33.5491 29.7853 33.136 30.1985C32.7228 30.6116 32.1624 30.8437 31.5781 30.8437Z" stroke="black" stroke-width="2" stroke-miterlimit="10" stroke-linecap="round"/>
<path d="M5.875 25.3359V25.3157C5.875 20.2669 10.0059 17.625 15.0547 17.625H21.6641C26.7129 17.625 30.8438 20.2871 30.8438 25.3359V25.3157" stroke="black" stroke-width="2" stroke-miterlimit="10" stroke-linecap="round"/>
<path d="M22.123 10.2812L22.806 16.1535" stroke="black" stroke-width="2" stroke-miterlimit="10" stroke-linecap="round"/>
<path d="M23.5 44.0625H36.2882C37.0293 44.0625 37.743 43.7824 38.2862 43.2783C38.8295 42.7742 39.1621 42.0834 39.2175 41.3444L42.502 10.2812" stroke="black" stroke-width="2" stroke-miterlimit="10" stroke-linecap="round"/>
<path d="M33.7812 10.2812L35.25 4.40625L39.5645 2.9375" stroke="black" stroke-width="2" stroke-linecap="round" stroke-linejoin="round"/>
<path d="M20.5625 10.2812H44.0625" stroke="black" stroke-width="2" stroke-miterlimit="10" stroke-linecap="round"/>
</svg>
