<svg width="170" height="51" viewBox="0 0 170 51" fill="none" xmlns="http://www.w3.org/2000/svg">
<g clip-path="url(#clip0_337_337)">
<path d="M163.429 50.2857H6.28571C2.82857 50.2857 0 47.4571 0 44V6.28571C0 2.82857 2.82857 0 6.28571 0H163.429C166.886 0 169.714 2.82857 169.714 6.28571V44C169.714 47.4571 166.886 50.2857 163.429 50.2857Z" fill="black"/>
<path d="M163.429 1.00571C166.345 1.00571 168.709 3.36914 168.709 6.28571V44C168.709 46.9166 166.345 49.28 163.429 49.28H6.28571C3.36914 49.28 1.00571 46.9166 1.00571 44V6.28571C1.00571 3.36914 3.36914 1.00571 6.28571 1.00571H163.429ZM163.429 0H6.28571C2.82857 0 0 2.82857 0 6.28571V44C0 47.4571 2.82857 50.2857 6.28571 50.2857H163.429C166.886 50.2857 169.714 47.4571 169.714 44V6.28571C169.714 2.82857 166.886 0 163.429 0Z" fill="#A6A6A6"/>
<path d="M85.6617 27.3429C82.7074 27.3429 80.2937 29.5932 80.2937 32.6858C80.2937 35.7658 82.7074 38.0286 85.6617 38.0286C88.616 38.0286 91.0297 35.7658 91.0297 32.6858C91.0297 29.5932 88.616 27.3429 85.6617 27.3429ZM85.6617 35.9292C84.04 35.9292 82.6446 34.5966 82.6446 32.6858C82.6446 30.7623 84.04 29.4423 85.6617 29.4423C87.2834 29.4423 88.6789 30.7623 88.6789 32.6858C88.6789 34.5966 87.2709 35.9292 85.6617 35.9292ZM73.9451 27.3429C70.9909 27.3429 68.5771 29.5932 68.5771 32.6858C68.5771 35.7658 70.9909 38.0286 73.9451 38.0286C76.8994 38.0286 79.3131 35.7658 79.3131 32.6858C79.3131 29.5932 76.8994 27.3429 73.9451 27.3429ZM73.9451 35.9292C72.3234 35.9292 70.928 34.5966 70.928 32.6858C70.928 30.7623 72.3234 29.4423 73.9451 29.4423C75.5669 29.4423 76.9623 30.7623 76.9623 32.6858C76.9623 34.5966 75.5669 35.9292 73.9451 35.9292ZM60.016 28.9898V31.2526H65.4469C65.2834 32.5223 64.856 33.4652 64.2149 34.1063C63.4229 34.8983 62.1909 35.7658 60.0286 35.7658C56.6846 35.7658 54.0697 33.0755 54.0697 29.7315C54.0697 26.3875 56.6846 23.6972 60.0286 23.6972C61.8263 23.6972 63.1463 24.4012 64.1143 25.3189L65.7109 23.7223C64.3531 22.4275 62.5554 21.4343 60.016 21.4343C55.44 21.4343 51.5931 25.1555 51.5931 29.744C51.5931 34.32 55.44 38.0538 60.016 38.0538C62.4926 38.0538 64.3531 37.2492 65.8114 35.728C67.3074 34.232 67.7726 32.12 67.7726 30.4229C67.7726 29.8949 67.7349 29.4046 67.6469 29.0023H60.016V28.9898ZM116.977 30.7498C116.537 29.5555 115.179 27.3429 112.401 27.3429C109.648 27.3429 107.36 29.5052 107.36 32.6858C107.36 35.6778 109.623 38.0286 112.665 38.0286C115.117 38.0286 116.537 36.5326 117.115 35.6652L115.293 34.4458C114.689 35.3383 113.859 35.9292 112.665 35.9292C111.471 35.9292 110.616 35.376 110.075 34.3075L117.229 31.3532L116.977 30.7498ZM109.686 32.5349C109.623 30.4732 111.282 29.4172 112.477 29.4172C113.407 29.4172 114.199 29.8823 114.463 30.5486L109.686 32.5349ZM103.878 37.7143H106.229V22H103.878V37.7143ZM100.031 28.5372H99.9429C99.4149 27.9086 98.4091 27.3429 97.1269 27.3429C94.4491 27.3429 91.9977 29.6938 91.9977 32.7109C91.9977 35.7029 94.4491 38.0412 97.1269 38.0412C98.3966 38.0412 99.4149 37.4755 99.9429 36.8218H100.018V37.5886C100.018 39.6378 98.9246 40.7315 97.1646 40.7315C95.7314 40.7315 94.8389 39.7006 94.4743 38.8332L92.4251 39.688C93.016 41.1086 94.5749 42.8435 97.1646 42.8435C99.9177 42.8435 102.243 41.2218 102.243 37.2743V27.6698H100.018L100.031 28.5372ZM97.328 35.9292C95.7063 35.9292 94.3486 34.5715 94.3486 32.7109C94.3486 30.8252 95.7063 29.4549 97.328 29.4549C98.9246 29.4549 100.182 30.8378 100.182 32.7109C100.194 34.5715 98.9371 35.9292 97.328 35.9292ZM127.99 22H122.37V37.7143H124.721V31.7555H128.002C130.605 31.7555 133.157 29.8698 133.157 26.8778C133.157 23.8858 130.579 22 127.99 22ZM128.04 29.568H124.709V24.1749H128.04C129.8 24.1749 130.793 25.6332 130.793 26.8652C130.793 28.0972 129.8 29.568 128.04 29.568ZM142.547 27.3178C140.85 27.3178 139.09 28.072 138.361 29.7189L140.448 30.5863C140.888 29.7189 141.718 29.4298 142.585 29.4298C143.792 29.4298 145.037 30.1589 145.049 31.4538V31.6172C144.622 31.3783 143.717 31.0138 142.598 31.0138C140.347 31.0138 138.072 32.2458 138.072 34.5463C138.072 36.6458 139.907 38.0035 141.969 38.0035C143.541 38.0035 144.421 37.2995 144.961 36.4698H145.037V37.6892H147.299V31.6675C147.312 28.8766 145.225 27.3178 142.547 27.3178ZM142.258 35.9292C141.491 35.9292 140.423 35.5395 140.423 34.5966C140.423 33.3898 141.755 32.9246 142.912 32.9246C143.943 32.9246 144.433 33.1509 145.049 33.4526C144.873 34.8983 143.616 35.9292 142.258 35.9292ZM155.559 27.6572L152.869 34.4709H152.793L150.002 27.6572H147.475L151.662 37.1863L149.273 42.4789H151.725L158.174 27.6572H155.559ZM134.439 37.7143H136.79V22H134.439V37.7143Z" fill="white"/>
<path d="M13.1246 9.47887C12.76 9.86858 12.5463 10.472 12.5463 11.2389V39.0469C12.5463 39.8263 12.76 40.4297 13.1246 40.8069L13.2126 40.8949L28.7886 25.3314V25.1429V24.9543L13.2126 9.39087L13.1246 9.47887Z" fill="url(#paint0_linear_337_337)"/>
<path d="M33.9805 30.5234L28.7885 25.3314V25.1428V24.9543L33.9805 19.7623L34.0937 19.8251L40.2411 23.32C42.0011 24.3131 42.0011 25.9474 40.2411 26.9531L34.0937 30.448L33.9805 30.5234Z" fill="url(#paint1_linear_337_337)"/>
<path d="M34.0937 30.448L28.7885 25.1429L13.1245 40.8069C13.7028 41.4229 14.6583 41.4983 15.7394 40.8823L34.0937 30.448Z" fill="url(#paint2_linear_337_337)"/>
<path d="M34.0937 19.8377L15.7268 9.40343C14.6457 8.78743 13.6903 8.86286 13.112 9.47886L28.7885 25.1429L34.0937 19.8377Z" fill="url(#paint3_linear_337_337)"/>
<path opacity="0.2" d="M33.9805 30.3348L15.7268 40.7063C14.7085 41.2845 13.7908 41.2468 13.2125 40.7188L13.1245 40.8068L13.2125 40.8948C13.8034 41.4228 14.7085 41.4605 15.7268 40.8823L34.0937 30.448L33.9805 30.3348Z" fill="black"/>
<path opacity="0.12" d="M13.1245 40.6308C12.76 40.2411 12.5463 39.6377 12.5463 38.8708V39.0594C12.5463 39.8388 12.76 40.4423 13.1245 40.8194L13.2125 40.7314L13.1245 40.6308Z" fill="black"/>
<path opacity="0.12" d="M40.2411 26.7772L33.968 30.3349L34.0811 30.448L40.2286 26.9532C41.1086 26.4503 41.5486 25.7966 41.5486 25.1429C41.4857 25.7337 41.0457 26.3246 40.2411 26.7772Z" fill="black"/>
<path opacity="0.25" d="M15.7268 9.57933L40.2411 23.5085C41.0331 23.961 41.4857 24.5393 41.5611 25.1428C41.5611 24.489 41.1211 23.8228 40.2411 23.3325L15.7268 9.40333C13.9668 8.41019 12.5337 9.2399 12.5337 11.2513V11.4399C12.5337 9.4159 13.9794 8.58619 15.7268 9.57933Z" fill="white"/>
<path d="M51.9703 16.3428V8.79999H54.2834C55.44 8.79999 56.3703 9.15199 57.0617 9.84342C57.7531 10.5474 58.1051 11.4526 58.1051 12.5714C58.1051 13.6903 57.7531 14.5954 57.0617 15.2994C56.3577 15.9908 55.4274 16.3428 54.2708 16.3428H51.9703ZM52.9383 15.4126H54.2708C55.1383 15.4126 55.8297 15.1611 56.3451 14.6583C56.8606 14.1554 57.112 13.464 57.112 12.5588C57.112 11.6663 56.8606 10.9748 56.3451 10.472C55.8297 9.96913 55.1508 9.7177 54.2708 9.7177H52.9383V15.4126Z" fill="white" stroke="white" stroke-width="0.2" stroke-miterlimit="10"/>
<path d="M59.4628 16.3428V8.79999H60.4308V16.3428H59.4628Z" fill="white" stroke="white" stroke-width="0.2" stroke-miterlimit="10"/>
<path d="M64.2777 16.5063C63.7246 16.5063 63.1966 16.3303 62.6686 15.9657C62.1406 15.6012 61.8011 15.1109 61.6377 14.4572L62.5177 14.1052C62.6183 14.52 62.832 14.872 63.1588 15.1486C63.4857 15.4377 63.8503 15.576 64.2651 15.576C64.68 15.576 65.0446 15.4629 65.3463 15.2492C65.648 15.0229 65.7988 14.7337 65.7988 14.344C65.7988 13.9292 65.648 13.6023 65.3463 13.376C65.0446 13.1497 64.5794 12.936 63.9257 12.7349C63.2594 12.5212 62.7566 12.2572 62.4046 11.9177C62.0651 11.5783 61.8891 11.1635 61.8891 10.6355C61.8891 10.0949 62.1028 9.62974 62.5303 9.22745C62.9577 8.82517 63.5234 8.62402 64.2023 8.62402C64.8434 8.62402 65.3588 8.78745 65.7611 9.10174C66.1634 9.41602 66.4274 9.76802 66.5406 10.1452L65.6606 10.5097C65.5977 10.2709 65.4468 10.0446 65.1954 9.84345C64.944 9.64231 64.6297 9.54174 64.2274 9.54174C63.8503 9.54174 63.536 9.64231 63.272 9.85602C63.008 10.0697 62.8823 10.3212 62.8823 10.6355C62.8823 10.912 63.008 11.1509 63.2468 11.352C63.4857 11.5406 63.8503 11.7166 64.3154 11.8675C64.6926 11.9932 64.9943 12.1063 65.2457 12.2195C65.4971 12.3326 65.7486 12.4835 66 12.672C66.2514 12.8606 66.4526 13.0869 66.5783 13.3635C66.704 13.64 66.7794 13.9669 66.7794 14.3315C66.7794 14.696 66.704 15.0229 66.5531 15.312C66.4023 15.6012 66.2011 15.8275 65.9497 15.9909C65.6983 16.1543 65.4343 16.2926 65.1451 16.3806C64.8811 16.4686 64.5794 16.5063 64.2777 16.5063Z" fill="white" stroke="white" stroke-width="0.2" stroke-miterlimit="10"/>
<path d="M69.1554 16.3428H68.1874V8.79999H70.752C71.3931 8.79999 71.9463 9.0137 72.4114 9.44113C72.8766 9.86856 73.1154 10.3966 73.1154 11.0503C73.1154 11.6914 72.8766 12.232 72.4114 12.6594C71.9463 13.0868 71.3931 13.3006 70.752 13.3006H69.1554V16.3428ZM69.1554 12.3577H70.7771C71.1794 12.3577 71.5063 12.2194 71.7577 11.9428C72.0092 11.6663 72.1223 11.3646 72.1223 11.0377C72.1223 10.7108 71.9966 10.4091 71.7577 10.1326C71.5063 9.85599 71.1794 9.7177 70.7771 9.7177H69.1554V12.3577Z" fill="white" stroke="white" stroke-width="0.2" stroke-miterlimit="10"/>
<path d="M80.5074 15.3623C79.7657 16.1292 78.848 16.5063 77.7417 16.5063C76.6354 16.5063 75.7177 16.1292 74.976 15.3623C74.2343 14.5955 73.8697 13.6652 73.8697 12.5715C73.8697 11.4777 74.2343 10.5349 74.976 9.7806C75.7177 9.01374 76.6354 8.6366 77.7417 8.6366C78.8354 8.6366 79.7531 9.01374 80.5074 9.7806C81.2491 10.5475 81.6263 11.4777 81.6263 12.5715C81.6263 13.6777 81.2491 14.608 80.5074 15.3623ZM75.6926 14.7337C76.2457 15.2995 76.9371 15.576 77.7417 15.576C78.5463 15.576 79.2377 15.2995 79.7909 14.7337C80.344 14.168 80.6331 13.4515 80.6331 12.5715C80.6331 11.6915 80.3566 10.9749 79.7909 10.4092C79.2377 9.84345 78.5463 9.56688 77.7417 9.56688C76.9371 9.56688 76.2457 9.84345 75.6926 10.4092C75.1394 10.9749 74.8503 11.6915 74.8503 12.5715C74.8503 13.4515 75.1394 14.168 75.6926 14.7337Z" fill="white" stroke="white" stroke-width="0.2" stroke-miterlimit="10"/>
<path d="M82.984 16.3428V8.79999H84.1657L87.8366 14.6708H87.8743L87.8366 13.2126V8.79999H88.8046V16.3428H87.7989L83.9646 10.1954H83.9269L83.9646 11.6537V16.3428H82.984Z" fill="white" stroke="white" stroke-width="0.2" stroke-miterlimit="10"/>
<path d="M90.5269 16.3429V8.80001H91.4948V16.3429H90.5269ZM91.432 8.20916H90.5897L91.1429 6.86401H92.1988L91.432 8.20916Z" fill="white" stroke="white" stroke-width="0.2" stroke-miterlimit="10"/>
<path d="M95.0903 16.3428L92.4377 8.79999H93.5063L95.568 14.9223H95.6057L97.768 8.79999H98.8366L96.096 16.3428H95.0903Z" fill="white" stroke="white" stroke-width="0.2" stroke-miterlimit="10"/>
<path d="M104.343 9.73027H100.911V12.1188H104.003V13.024H100.911V15.4126H104.343V16.3428H99.9428V8.79999H104.343V9.73027Z" fill="white" stroke="white" stroke-width="0.2" stroke-miterlimit="10"/>
<path d="M105.851 16.3428V8.79999H106.819V15.4126H110.088V16.3428H105.851Z" fill="white" stroke="white" stroke-width="0.2" stroke-miterlimit="10"/>
<path d="M113.834 16.3428V8.79999H115.016L118.687 14.6708H118.725L118.687 13.2126V8.79999H119.655V16.3428H118.649L114.815 10.1954H114.777L114.815 11.6537V16.3428H113.834Z" fill="white" stroke="white" stroke-width="0.2" stroke-miterlimit="10"/>
<path d="M127.55 15.3623C126.808 16.1292 125.89 16.5063 124.784 16.5063C123.678 16.5063 122.76 16.1292 122.018 15.3623C121.277 14.5955 120.912 13.6652 120.912 12.5715C120.912 11.4777 121.277 10.5349 122.018 9.7806C122.76 9.01374 123.678 8.6366 124.784 8.6366C125.878 8.6366 126.795 9.01374 127.55 9.7806C128.291 10.5475 128.669 11.4777 128.669 12.5715C128.656 13.6777 128.291 14.608 127.55 15.3623ZM122.735 14.7337C123.288 15.2995 123.979 15.576 124.784 15.576C125.589 15.576 126.28 15.2995 126.833 14.7337C127.386 14.168 127.675 13.4515 127.675 12.5715C127.675 11.6915 127.399 10.9749 126.833 10.4092C126.28 9.84345 125.589 9.56688 124.784 9.56688C123.979 9.56688 123.288 9.84345 122.735 10.4092C122.182 10.9749 121.893 11.6915 121.893 12.5715C121.893 13.4515 122.182 14.168 122.735 14.7337Z" fill="white" stroke="white" stroke-width="0.2" stroke-miterlimit="10"/>
</g>
<defs>
<linearGradient id="paint0_linear_337_337" x1="27.4088" y1="10.9529" x2="6.31096" y2="32.0507" gradientUnits="userSpaceOnUse">
<stop stop-color="#00A0FF"/>
<stop offset="0.00657445" stop-color="#00A1FF"/>
<stop offset="0.2601" stop-color="#00BEFF"/>
<stop offset="0.5122" stop-color="#00D2FF"/>
<stop offset="0.7604" stop-color="#00DFFF"/>
<stop offset="1" stop-color="#00E3FF"/>
</linearGradient>
<linearGradient id="paint1_linear_337_337" x1="42.5346" y1="25.1428" x2="12.1157" y2="25.1428" gradientUnits="userSpaceOnUse">
<stop stop-color="#FFE000"/>
<stop offset="0.4087" stop-color="#FFBD00"/>
<stop offset="0.7754" stop-color="#FFA500"/>
<stop offset="1" stop-color="#FF9C00"/>
</linearGradient>
<linearGradient id="paint2_linear_337_337" x1="31.2092" y1="28.0274" x2="2.59874" y2="56.638" gradientUnits="userSpaceOnUse">
<stop stop-color="#FF3A44"/>
<stop offset="1" stop-color="#C31162"/>
</linearGradient>
<linearGradient id="paint3_linear_337_337" x1="9.16982" y1="0.225407" x2="21.9457" y2="13.0011" gradientUnits="userSpaceOnUse">
<stop stop-color="#32A071"/>
<stop offset="0.0685" stop-color="#2DA771"/>
<stop offset="0.4762" stop-color="#15CF74"/>
<stop offset="0.8009" stop-color="#06E775"/>
<stop offset="1" stop-color="#00F076"/>
</linearGradient>
<clipPath id="clip0_337_337">
<rect width="169.714" height="50.2857" fill="white"/>
</clipPath>
</defs>
</svg>
