<svg width="24" height="25" viewBox="0 0 24 25" fill="none" xmlns="http://www.w3.org/2000/svg">
<path d="M11.9968 8.33156C9.79333 8.33156 7.99515 10.2047 7.99515 12.5C7.99515 14.7953 9.79333 16.6684 11.9968 16.6684C14.2002 16.6684 15.9984 14.7953 15.9984 12.5C15.9984 10.2047 14.2002 8.33156 11.9968 8.33156ZM23.9987 12.5C23.9987 10.7738 24.0137 9.0633 23.9206 7.34026C23.8275 5.33891 23.3893 3.56271 21.9843 2.09922C20.5764 0.632607 18.8743 0.179176 16.953 0.082235C15.2959 -0.0147055 13.6539 0.000930141 11.9998 0.000930141C10.3427 0.000930141 8.70061 -0.0147055 7.04652 0.082235C5.12526 0.179176 3.42014 0.635734 2.01522 2.09922C0.607291 3.56584 0.172005 5.33891 0.0789442 7.34026C-0.014117 9.06643 0.000892919 10.777 0.000892919 12.5C0.000892919 14.223 -0.014117 15.9367 0.0789442 17.6597C0.172005 19.6611 0.610293 21.4373 2.01522 22.9008C3.42314 24.3674 5.12526 24.8208 7.04652 24.9178C8.70361 25.0147 10.3457 24.9991 11.9998 24.9991C13.6569 24.9991 15.2989 25.0147 16.953 24.9178C18.8743 24.8208 20.5794 24.3643 21.9843 22.9008C23.3923 21.4342 23.8275 19.6611 23.9206 17.6597C24.0167 15.9367 23.9987 14.2262 23.9987 12.5ZM11.9968 18.9137C8.58954 18.9137 5.83973 16.0493 5.83973 12.5C5.83973 8.95073 8.58954 6.08629 11.9968 6.08629C15.404 6.08629 18.1538 8.95073 18.1538 12.5C18.1538 16.0493 15.404 18.9137 11.9968 18.9137ZM18.406 7.3215C17.6105 7.3215 16.968 6.6523 16.968 5.82361C16.968 4.99493 17.6105 4.32573 18.406 4.32573C19.2015 4.32573 19.8439 4.99493 19.8439 5.82361C19.8442 6.02039 19.8071 6.21528 19.735 6.39712C19.6628 6.57897 19.5569 6.74419 19.4233 6.88333C19.2897 7.02247 19.1311 7.1328 18.9565 7.20798C18.782 7.28317 18.5949 7.32175 18.406 7.3215Z" fill="white"/>
</svg>
