<svg width="59" height="49" viewBox="0 0 59 49" fill="none" xmlns="http://www.w3.org/2000/svg">
<g id="sushi">
<path id="Rectangle 3" fill-rule="evenodd" clip-rule="evenodd" d="M11.9982 27.1809C12.2621 25.432 13.3987 23.9824 15.008 23.2488C21.3809 20.3438 38.3381 13.4272 47.4999 17.442C56.1126 21.2161 54.5858 31.2232 53.309 35.9292C52.868 37.5547 51.6047 38.778 50.0143 39.3326C43.168 41.72 24.0761 47.9186 16.9999 45.442C10.4343 43.144 11.2212 32.3302 11.9982 27.1809Z" fill="#FDD835"/>
<path id="Shape" d="M27.7079 39.4329C27.2308 39.4329 26.8437 39.823 26.8437 40.3037V41.7493C26.8437 42.2305 27.2308 42.6201 27.7079 42.6201C28.1855 42.6201 28.5722 42.2305 28.5722 41.7493V40.3037C28.5722 39.823 28.1855 39.4329 27.7079 39.4329V39.4329Z" fill="black"/>
<path id="Shape_2" d="M16.7814 39.4329C16.3043 39.4329 15.9171 39.823 15.9171 40.3037V41.7493C15.9171 42.2305 16.3043 42.6201 16.7814 42.6201C17.259 42.6201 17.6457 42.2305 17.6457 41.7493V40.3037C17.6461 39.823 17.259 39.4329 16.7814 39.4329V39.4329Z" fill="black"/>
<path id="Shape_3" d="M24.0322 40.6299C23.8859 40.5328 23.239 40.282 22.8353 40.8793C22.6413 41.166 22.3595 41.2005 22.2447 41.2005C22.1303 41.2005 21.8432 41.1692 21.6546 40.8793C21.3921 40.4775 20.8565 40.3654 20.4576 40.6299C20.0584 40.8939 19.9476 41.4336 20.2096 41.8355C20.6616 42.5285 21.4223 42.9422 22.2447 42.9422C23.0675 42.9422 23.8283 42.5285 24.2797 41.8355C24.5422 41.4336 24.431 40.8939 24.0322 40.6299Z" fill="black"/>
<path id="Shape_4" d="M18.2704 31.5218C18.6918 31.7467 19.2153 31.5852 19.439 31.1603C19.6627 30.7353 19.502 30.2082 19.0802 29.9828C18.4419 29.6422 18.0611 29.2167 18.0611 28.8452C18.0611 28.4733 18.4419 28.0483 19.0802 27.7072C19.899 27.2695 21.0527 27.0187 22.2447 27.0187C23.4371 27.0187 24.5903 27.2695 25.4096 27.7072C26.0474 28.0483 26.4287 28.4733 26.4287 28.8452C26.4287 29.2167 26.0474 29.6422 25.4096 29.9828C24.5903 30.4205 23.4371 30.6718 22.2447 30.6718C21.7675 30.6718 21.3804 31.0614 21.3804 31.5426C21.3804 32.0234 21.7675 32.4135 22.2447 32.4135C25.6153 32.4135 28.1572 30.879 28.1572 28.8452C28.1572 26.811 25.6153 25.277 22.2447 25.277C18.8741 25.277 16.3322 26.811 16.3322 28.8452C16.3322 29.9034 17.0204 30.8536 18.2704 31.5218Z" fill="black"/>
<path id="Shape_5" fill-rule="evenodd" clip-rule="evenodd" d="M42.0038 14.1718C46.867 14.1718 51.5633 15.6278 55.5852 18.3818C59.0607 20.7617 60.0258 25.4888 57.8183 29.0498C58.2685 29.7605 58.5079 30.5801 58.5021 31.422C58.4922 32.8171 57.8517 34.1007 56.7457 34.9435C56.5805 35.0691 56.499 35.261 56.5278 35.4565C56.7124 36.7033 56.3617 37.9756 55.5663 38.9471C54.7642 39.9268 53.5812 40.5156 52.3204 40.5632C52.1228 40.5704 51.9486 40.6911 51.8662 40.8775C51.1555 42.4818 49.5705 43.5182 47.8276 43.5182C46.8841 43.5182 45.9839 43.2225 45.224 42.6632C45.0363 42.5258 44.7946 42.5253 44.6069 42.6632C43.8471 43.2225 42.9468 43.5182 42.0038 43.5182C41.0607 43.5182 40.1605 43.2225 39.4002 42.6632C39.2129 42.5253 38.9618 42.5135 38.7835 42.6632C37.0892 44.0861 35.1721 43.4284 34.7003 43.2597C34.0621 44.556 32.9007 45.7293 31.2807 46.6841C28.8531 48.1147 25.6441 48.9025 22.2447 48.9025C18.8453 48.9025 15.6363 48.1147 13.2091 46.6841C11.9128 45.9198 10.9099 45.0159 10.2337 44.0212L10.2202 44.0247C9.81806 44.1293 8.10675 44.5744 6.35584 43.2392C5.16119 42.3285 4.50759 40.9301 4.5436 39.4751C2.74036 39.4329 1.58172 38.5811 0.855201 37.5601C0.128685 36.5396 -0.148148 35.2972 0.0755689 34.0613C0.299286 32.8257 0.993843 31.7617 2.0314 31.0654L10.4098 25.4421C11.0791 24.544 13.2681 22.5828 15.7465 21.8598L19.5344 19.3175L34.1764 1.11762C35.1941 -0.147379 37.0023 -0.370083 38.292 0.611442C39.5821 1.59251 39.8652 3.40543 38.9366 4.73801L36.8993 7.66263L39.8503 5.68144C41.1958 4.77884 42.9873 5.10813 43.9295 6.43164C44.8711 7.7547 44.6065 9.57034 43.3263 10.5646L38.3185 14.4548C39.5303 14.2675 40.7614 14.1718 42.0038 14.1718ZM43.2003 21.4765C43.3754 19.5607 43.0639 17.6498 42.3009 15.9162C42.2019 15.9149 40.4013 15.9571 39.61 16.0419C40.5089 17.5858 40.9203 19.3847 40.7749 21.2398C40.6827 22.4222 41.8634 22.5851 41.8755 22.5864C42.5444 22.6477 43.1386 22.1505 43.2003 21.4765ZM37.7288 16.3254C38.7191 17.6834 39.1877 19.3602 39.0518 21.1033C38.8924 23.1371 40.1127 24.3332 41.9894 24.3332C43.4933 24.3332 44.7811 23.1743 44.9215 21.6362C45.0971 19.7185 44.8491 17.8036 44.2058 16.0224C45.4752 16.1471 46.7257 16.3803 47.9464 16.7177C48.5033 18.1986 48.5438 19.8483 48.0527 21.4085C47.4405 23.353 48.7688 24.7994 49.9252 25.1505C52.012 25.785 53.2405 24.5123 53.6501 23.2677C53.7451 22.9797 53.8306 22.6862 53.9049 22.3951C54.0232 21.9292 53.7446 21.4543 53.2823 21.3351C52.8196 21.2158 52.3487 21.4965 52.2304 21.9623C52.166 22.215 52.0917 22.4694 52.0098 22.7194C51.7982 23.3616 51.1068 23.7109 50.4694 23.4977C50.4582 23.494 49.3446 23.0654 49.7006 21.9351C50.1732 20.4334 50.2462 18.8613 49.9315 17.369C51.5705 17.9936 53.141 18.8137 54.6138 19.8219C57.3853 21.7201 58.1078 25.536 56.224 28.3291C55.0892 30.0118 51.3251 32.2942 47.7695 29.9438C44.2049 27.588 39.6743 27.5911 36.2267 29.952C35.922 30.1606 35.6024 30.3389 35.2707 30.4872V28.8453C35.2707 27.8442 34.9862 26.8777 34.442 25.9792C35.9963 25.6385 37.01 24.105 36.7102 22.522C36.3582 20.662 35.6114 18.9148 34.5306 17.3972C34.5302 17.3972 36.7989 16.5068 37.7288 16.3254ZM35.0123 22.8486C34.6684 21.0325 33.891 19.342 32.7548 17.9214C31.9928 18.2698 31.2473 18.6621 30.5231 19.0976C31.5656 20.2664 32.2971 21.7219 32.6166 23.2971C32.8525 24.4592 34.0319 24.2864 34.044 24.2841C34.7035 24.1571 35.1378 23.5131 35.0123 22.8486ZM29.0588 20.0696C29.7673 20.8044 30.3142 21.7002 30.6577 22.6835C29.7601 22.2186 28.7743 21.8335 27.7219 21.5369C28.0829 20.9794 28.5331 20.4841 29.0588 20.0696ZM37.2504 2.00117C36.708 1.58842 35.9472 1.68231 35.5192 2.21434L24.3716 16.0709L32.9322 10.3251L37.5218 3.73698C37.9125 3.17636 37.7932 2.41391 37.2504 2.00117ZM40.8087 7.13103C41.3745 6.75139 42.1285 6.88973 42.5246 7.44671C42.9207 8.00324 42.8095 8.76705 42.2707 9.18524L34.158 15.4876C32.1423 16.1852 30.2152 17.154 28.4223 18.3814C27.3834 19.093 26.5412 20.0328 25.9507 21.1304C23.6415 20.725 20.9402 20.837 20.3024 20.8946L40.8087 7.13103ZM22.2447 22.5488C19.1473 22.5488 16.2484 23.2518 14.0815 24.5286C12.0608 25.7197 10.9476 27.2527 10.9476 28.8448C10.9476 30.4372 12.0608 31.9703 14.0815 33.1614C16.2484 34.4382 19.1473 35.1412 22.2447 35.1412C25.342 35.1412 28.2409 34.4382 30.4078 33.1614C32.4285 31.9703 33.5417 30.4372 33.5417 28.8448C33.5417 27.2527 32.4289 25.7197 30.4078 24.5286C28.2409 23.2518 25.342 22.5488 22.2447 22.5488ZM2.25963 36.545C1.05732 34.6845 2.34606 32.9469 2.98975 32.5151L9.24661 28.315C9.22906 28.4905 9.21916 34.8596 9.21916 34.8596L6.28248 37.141C5.66985 37.6168 3.46284 38.4056 2.25963 36.545ZM9.21915 37.0589C9.21915 37.0589 6.67229 38.9702 6.30993 39.1231C6.07361 40.8244 6.8762 42.5444 9.44962 42.4015C9.29747 41.9017 9.21915 41.3878 9.21915 40.8643V37.0589ZM30.4078 45.1805C28.2409 46.4573 25.342 47.1608 22.2447 47.1608C19.1473 47.1608 16.2484 46.4573 14.0815 45.1805C12.0608 43.9894 10.9476 42.4564 10.9476 40.8643V32.8901C11.5531 33.5378 12.3102 34.1347 13.2091 34.6645C15.6362 36.0951 18.8452 36.8829 22.2447 36.8829C25.6441 36.8829 28.8531 36.0951 31.2806 34.6645C32.1791 34.1352 32.9362 33.5383 33.5417 32.8901V40.8643C33.5417 42.4564 32.4289 43.9894 30.4078 45.1805ZM54.8182 35.7132C54.6967 34.8895 55.064 34.0985 55.7032 33.5542C57.2688 32.2206 56.7532 30.867 56.6195 30.5159C56.6152 30.5047 56.6114 30.4945 56.6079 30.4854C56.5755 30.5147 56.5419 30.5453 56.5069 30.5771C55.6889 31.3219 54.1776 32.6979 51.0011 32.6979C49.7384 32.6979 48.2962 32.3754 46.8211 31.4002C43.843 29.4317 40.0655 29.4286 37.1982 31.3925C36.5968 31.8039 35.9508 32.1255 35.2702 32.3532C35.2702 32.3532 35.2522 41.3561 35.218 41.5983C35.5228 41.7157 36.6548 42.0169 37.764 41.2567C38.5774 40.6993 39.6253 40.6725 40.4198 41.2567C40.8816 41.5969 41.4294 41.7765 42.0038 41.7765C42.5777 41.7765 43.1255 41.5969 43.5878 41.2567C44.3823 40.6725 45.4496 40.6725 46.2436 41.2567C46.7054 41.5969 47.2533 41.7765 47.8276 41.7765C48.889 41.7765 49.855 41.1452 50.2876 40.1677C50.641 39.3703 51.3949 38.8551 52.2561 38.8224C53.024 38.7938 53.7446 38.4351 54.233 37.8386C54.7169 37.2472 54.9303 36.4725 54.8182 35.7132Z" fill="black"/>
</g>
</svg>
