<svg width="56" height="56" viewBox="0 0 56 56" fill="none" xmlns="http://www.w3.org/2000/svg">
<path d="M16.7595 50.7671C16.5856 50.8366 16.3996 50.8712 16.2122 50.8688C16.0249 50.8663 15.8399 50.827 15.6677 50.7531C15.4956 50.6791 15.3397 50.5719 15.209 50.4377C15.0784 50.3034 14.9754 50.1447 14.9061 49.9707L14.532 49.1665L13.8296 49.4861L6.44076 30.9898L7.19443 30.7666L6.1732 28.1143C6.10349 27.9402 6.06874 27.7541 6.07096 27.5666C6.07318 27.3791 6.11231 27.1938 6.18612 27.0214C6.25994 26.849 6.36698 26.6929 6.50116 26.5618C6.63533 26.4308 6.79399 26.3275 6.96809 26.2578L6.83976 25.4722L25.2622 18.1323L25.5873 18.8479L28.8268 17.5257C29.1785 17.3855 29.5715 17.3907 29.9193 17.5402C30.2672 17.6897 30.5414 17.9712 30.6818 18.3229L34.3886 27.6485L35.1291 27.4735L39.5072 38.4331C39.7996 39.165 39.3485 41.7418 38.6166 42.0342L21.5351 49.8882L21.2458 49.1672L16.7595 50.7679V50.7671Z" fill="#FDD835"/>
<path d="M46.4201 43.309L45.3576 42.2466L13.7542 10.6431L12.6902 9.57912C12.3725 9.41941 12.0222 9.33529 11.6666 9.33334C11.0478 9.33334 10.4543 9.57918 10.0167 10.0168C9.57915 10.4543 9.33331 11.0478 9.33331 11.6667V45.1111C9.33331 45.5237 9.4972 45.9193 9.78892 46.2111C10.0806 46.5028 10.4763 46.6667 10.8889 46.6667H44.3333C44.9521 46.6667 45.5456 46.4208 45.9832 45.9833C46.4208 45.5457 46.6666 44.9522 46.6666 44.3333C46.6666 43.9639 46.5733 43.6193 46.4201 43.309Z" fill="#FDD835"/>
<path d="M46.4201 43.309L45.3577 42.2465L13.7543 10.6431L12.6903 9.57909C12.3726 9.41938 12.0223 9.33526 11.6667 9.33331C11.0479 9.33331 10.4544 9.57915 10.0168 10.0167C9.57921 10.4543 9.33337 11.0478 9.33337 11.6666V45.1111C9.33337 45.5236 9.49726 45.9193 9.78899 46.211C10.0807 46.5028 10.4764 46.6666 10.8889 46.6666H44.3334C44.9522 46.6666 45.5457 46.4208 45.9833 45.9832C46.4209 45.5456 46.6667 44.9521 46.6667 44.3333C46.6667 43.9639 46.5734 43.6193 46.4201 43.309Z" stroke="black" stroke-width="2" stroke-miterlimit="10" stroke-linecap="round" stroke-linejoin="round"/>
<path d="M17.8889 41.2222L25.6667 33.4444" stroke="black" stroke-width="2" stroke-miterlimit="10" stroke-linecap="round" stroke-linejoin="round"/>
<path d="M14 37.3333L21.7778 29.5555" stroke="black" stroke-width="2" stroke-miterlimit="10" stroke-linecap="round" stroke-linejoin="round"/>
<path d="M13.2222 30.3333L18.6667 24.8889" stroke="black" stroke-width="2" stroke-miterlimit="10" stroke-linecap="round" stroke-linejoin="round"/>
<path d="M24.8889 42.7778L30.3334 37.3333" stroke="black" stroke-width="2" stroke-miterlimit="10" stroke-linecap="round" stroke-linejoin="round"/>
<path d="M26.8442 15.3751C26.6646 15.0305 26.4338 14.715 26.1598 14.4394C25.123 13.4019 23.6491 13.09 22.3324 13.4703C22.4584 13.0666 22.4718 12.636 22.3711 12.2252C22.2703 11.8144 22.0593 11.4389 21.7607 11.1393C21.461 10.8411 21.0856 10.6303 20.675 10.5297C20.2644 10.4291 19.8341 10.4425 19.4305 10.5684C19.8108 9.25243 19.4989 7.77776 18.4614 6.7402C18.1004 6.37903 17.6717 6.09251 17.2 5.89704C16.7282 5.70156 16.2226 5.60095 15.7119 5.60095C15.2013 5.60095 14.6956 5.70156 14.2238 5.89704C13.7521 6.09251 13.3235 6.37903 12.9625 6.7402C12.8251 6.8841 12.6992 7.03858 12.586 7.2022C12.2694 6.71863 11.849 6.31175 11.3553 6.01118C10.8616 5.71061 10.3071 5.52391 9.73211 5.46468C9.15716 5.40545 8.57624 5.47517 8.03163 5.66878C7.48703 5.86239 6.99245 6.17501 6.58391 6.58387C5.19402 7.97376 5.09058 10.1422 6.24324 11.6666C5.75527 12.0256 5.35839 12.4941 5.08456 13.0345C4.81073 13.5749 4.6676 14.172 4.66669 14.7778C4.66669 16.2454 5.4888 17.5078 6.68891 18.1696C5.95158 18.5616 5.44446 19.3285 5.44446 20.2222C5.44446 21.1159 5.95158 21.8828 6.68891 22.2748C5.96436 22.6752 5.38442 23.2938 5.03146 24.0426" stroke="black" stroke-width="2" stroke-miterlimit="10" stroke-linecap="round" stroke-linejoin="round"/>
<path d="M37.7666 28.6666C37.9244 27.9214 37.7393 27.1188 37.1599 26.5386C37.0557 26.4336 36.9351 26.3597 36.8169 26.2803" stroke="black" stroke-width="2" stroke-miterlimit="10" stroke-linecap="round" stroke-linejoin="round"/>
<path d="M6.03246 33.628C5.20102 34.3373 4.66669 35.3764 4.66669 36.5555C4.66669 38.024 5.4888 39.2855 6.68891 39.9474C5.95158 40.3394 5.44446 41.1063 5.44446 42C5.44446 42.8937 5.95158 43.6605 6.68891 44.0525C5.4888 44.7144 4.66669 45.9768 4.66669 47.4444C4.66669 48.4758 5.07641 49.465 5.80572 50.1943C6.53502 50.9236 7.52418 51.3333 8.55558 51.3333C10.0232 51.3333 11.2856 50.5104 11.9475 49.3111C12.0984 49.5958 12.3076 49.8447 12.5565 50.0453" stroke="black" stroke-width="2" stroke-miterlimit="10" stroke-linecap="round" stroke-linejoin="round"/>
<path d="M23.8156 50.2841C24.1352 50.4552 24.4984 50.5555 24.8889 50.5555C25.3119 50.5546 25.7266 50.4382 26.0883 50.2189C26.45 49.9996 26.745 49.6857 26.9414 49.3111C27.6026 50.5104 28.8657 51.3333 30.3333 51.3333C31.801 51.3333 33.0633 50.5104 33.7252 49.3111C34.1172 50.0484 34.8841 50.5555 35.7778 50.5555C36.2008 50.5546 36.6155 50.4382 36.9772 50.2189C37.3389 49.9996 37.6339 49.6857 37.8303 49.3111C38.4922 50.5097 39.7522 51.3333 41.2222 51.3333C42.5001 51.3333 43.624 50.708 44.3333 49.7568C45.857 50.9087 48.0278 50.8068 49.4177 49.4169C49.8262 49.008 50.1385 48.5133 50.3318 47.9686C50.5251 47.4239 50.5946 46.8429 50.5353 46.268C50.4759 45.6931 50.2891 45.1386 49.9886 44.6449C49.688 44.1512 49.2812 43.7307 48.7978 43.414C48.9572 43.2973 49.1167 43.1807 49.2598 43.0375C49.9888 42.3083 50.3984 41.3193 50.3984 40.2881C50.3984 39.2569 49.9888 38.2679 49.2598 37.5387C48.2207 36.5003 46.7476 36.1892 45.43 36.5695C45.5562 36.1657 45.5697 35.7351 45.4691 35.3242C45.3685 34.9133 45.1576 34.5376 44.8591 34.2378C44.5593 33.9398 44.1839 33.7292 43.7733 33.6286C43.3627 33.5281 42.9325 33.5413 42.5289 33.6669C42.9084 32.3501 42.5989 30.8762 41.5598 29.8379C40.5487 28.8268 39.1253 28.511 37.8373 28.8462" stroke="black" stroke-width="2" stroke-miterlimit="10" stroke-linecap="round" stroke-linejoin="round"/>
<path d="M30.6818 18.3229L34.3887 27.6484L30.6818 18.3229Z" stroke="black" stroke-width="2" stroke-miterlimit="10" stroke-linecap="round" stroke-linejoin="round"/>
<path d="M25.5873 18.8479L28.8696 17.5427C29.0398 17.4748 29.2217 17.4411 29.4049 17.4435C29.5882 17.446 29.7691 17.4845 29.9375 17.557C30.1058 17.6294 30.2582 17.7344 30.3859 17.8658C30.5136 17.9972 30.6142 18.1525 30.6818 18.3229L34.3887 27.6484" stroke="black" stroke-width="2" stroke-miterlimit="10" stroke-linecap="round" stroke-linejoin="round"/>
<path d="M14.532 49.1664L14.9325 50.1752C15.0693 50.5187 15.3368 50.7938 15.6763 50.9403C16.0158 51.0867 16.3995 51.0924 16.7432 50.9561L21.2465 49.1664" stroke="black" stroke-width="2" stroke-miterlimit="10" stroke-linecap="round" stroke-linejoin="round"/>
<path d="M7.19444 26.1528L6.90666 26.2663C6.56307 26.4034 6.28793 26.6713 6.14166 27.011C5.99539 27.3508 5.98996 27.7348 6.12655 28.0786L7.19444 30.7665" stroke="black" stroke-width="2" stroke-miterlimit="10" stroke-linecap="round" stroke-linejoin="round"/>
</svg>
