<svg width="38" height="38" viewBox="0 0 38 38" fill="none" xmlns="http://www.w3.org/2000/svg">
<path d="M34.0064 37.9709H3.99364C1.78781 37.9709 0 36.1845 0 33.9805V3.9904C0 1.78636 1.78781 0 3.99364 0H34.0064C36.2122 0 38 1.78636 38 3.9904V33.9788C38 36.1828 36.2122 37.9709 34.0064 37.9709Z" fill="#FDD835"/>
<path d="M19.0579 29.1686C16.4427 29.1686 14.2041 28.3384 12.5855 26.7661C11.0551 25.28 10.2122 23.221 10.2122 20.9669V15.7493C10.2122 15.6337 10.3486 15.5267 10.5006 15.5267H27.6273C27.7758 15.5267 27.9019 15.6285 27.9019 15.7493V20.9669C27.9037 25.7961 24.2659 29.1686 19.0579 29.1686ZM14.3388 20.7149C14.3388 23.2779 16.3235 25.1385 19.0579 25.1385C21.8009 25.1385 23.7908 23.2779 23.7908 20.7149V19.2703H14.3388V20.7149Z" fill="#1C1C1C"/>
<path d="M25.6391 13.3882C24.2538 13.3882 23.5214 12.596 23.5214 11.0944C23.5214 9.5946 24.2538 8.80066 25.6391 8.80066C27.0314 8.80066 27.7689 9.5946 27.7689 11.0944C27.7689 12.596 27.0314 13.3882 25.6391 13.3882ZM10.4954 12.9861C10.0964 12.9861 10.0964 11.9816 10.0964 11.0944C10.0964 10.2021 10.0964 9.19245 10.4954 9.19245H21.8234C22.2224 9.19245 22.2224 10.209 22.2224 11.1065C22.2224 11.9868 22.2224 12.9861 21.8234 12.9861H10.4954Z" fill="#1C1C1C"/>
</svg>
