<svg width="48" height="54" viewBox="0 0 48 54" fill="none" xmlns="http://www.w3.org/2000/svg">
<path d="M23.7223 53.9171C16.7994 53.9171 10.8734 51.7195 6.58888 47.5573C2.53759 43.6235 0.306183 38.1728 0.306183 32.2059V18.3942C0.306183 18.0881 0.667436 17.8048 1.06982 17.8048H46.4068C46.8 17.8048 47.1338 18.0744 47.1338 18.3942V32.2059C47.1384 44.9895 37.5086 53.9171 23.7223 53.9171ZM11.23 31.5388C11.23 38.3236 16.4839 43.2488 23.7223 43.2488C30.9835 43.2488 36.2511 38.3236 36.2511 31.5388V27.7147H11.23V31.5388Z" fill="#1C1C1C"/>
<path d="M41.1439 12.144C37.4767 12.144 35.538 10.0469 35.538 6.07203C35.538 2.10168 37.4767 0 41.1439 0C44.8294 0 46.7819 2.10168 46.7819 6.07203C46.7819 10.0469 44.8294 12.144 41.1439 12.144ZM1.05623 11.0795C-2.89989e-05 11.0795 0 8.42042 0 6.07203C0 3.70992 -2.89989e-05 1.03713 1.05623 1.03713H31.0431C32.0994 1.03713 32.0994 3.7282 32.0994 6.10401C32.0994 8.43413 32.0994 11.0795 31.0431 11.0795H1.05623Z" fill="#1C1C1C"/>
</svg>
