<svg width="94" height="21" viewBox="0 0 94 21" fill="none" xmlns="http://www.w3.org/2000/svg">
<path d="M0 3.99254C0 2.58351 0.771728 1.73889 2.42455 1.73889C4.07738 1.73889 4.84908 2.58152 4.84908 3.99254C4.84908 5.38965 4.07738 6.23428 2.42455 6.23428C0.771728 6.23428 0 5.39164 0 3.99254ZM0.399783 19.3925V7.87385C0.399783 7.379 1.41216 7.37899 2.43847 7.37899C3.43891 7.37899 4.43937 7.379 4.43937 7.87385V19.3925C4.43937 19.8874 3.43892 19.8874 2.42654 19.8874C1.41218 19.8854 0.399783 19.8854 0.399783 19.3925Z" fill="#1C1C1C"/>
<path d="M6.85199 19.3867V1.97149C6.85199 1.77474 7.0091 1.60382 7.20601 1.60382H13.2087C18.4755 1.60382 22.7438 5.06977 22.7438 10.686C22.7438 16.2904 18.4755 19.7682 13.2087 19.7682H7.20601C7.0091 19.7682 6.85199 19.5834 6.85199 19.3867ZM17.9106 10.686C17.9106 7.81231 15.677 5.9621 12.9183 5.9621H11.355V15.398H12.9183C15.677 15.3961 17.9106 13.5597 17.9106 10.686Z" fill="#1C1C1C"/>
<path d="M24.4384 13.0093C24.4384 9.09818 27.0778 6.11914 30.9921 6.11914C35.1033 6.11914 36.955 9.20351 36.955 13.0749C36.955 13.6651 36.941 14.2554 36.5472 14.2554H28.8102C28.9931 15.4895 30.1229 16.2904 31.4495 16.2904C32.6707 16.2904 33.7348 16.0022 34.7731 15.3723C34.8387 15.3325 34.9044 15.3206 34.97 15.3206C35.3519 15.3206 35.6403 15.9506 35.9028 16.6601C36.1256 17.2245 36.3225 17.8028 36.3225 18.2082C36.3225 18.4308 36.2708 18.6017 36.1117 18.6812C34.4827 19.653 32.7881 20.0326 30.9364 20.0326C26.9326 20.0306 24.4384 16.9721 24.4384 13.0093ZM30.9921 9.754C29.6515 9.754 28.8639 10.8033 28.7584 11.7752H32.7523C32.7264 10.7258 32.3326 9.754 30.9921 9.754Z" fill="#1C1C1C"/>
<path d="M39.3438 16.0658V0.538565C39.3438 -7.77068e-06 40.4476 0 41.5495 0C42.6514 0 43.7553 -7.77068e-06 43.7553 0.538565V15.0939C43.7553 15.5411 43.9661 15.869 44.5031 15.869C44.7259 15.869 44.9765 15.8432 45.251 15.7637C45.2908 15.7498 45.3305 15.7498 45.3683 15.7498C45.8417 15.7498 45.8417 16.6938 45.8417 17.6537C45.8417 18.6771 45.8417 19.7145 45.3683 19.806C44.6065 19.963 43.8309 20.0285 43.0969 20.0285C40.553 20.0305 39.3438 18.232 39.3438 16.0658Z" fill="#1C1C1C"/>
<path d="M47.592 2.57364C47.592 1.03741 48.4333 0.119263 50.2313 0.119263C52.0294 0.119263 52.8707 1.03741 52.8707 2.57364C52.8707 4.09595 52.0294 5.01411 50.2313 5.01411C48.4333 5.01411 47.592 4.09793 47.592 2.57364ZM48.0256 19.3469V6.80073C48.0256 6.26216 49.1294 6.26216 50.2453 6.26216C51.3352 6.26216 52.4252 6.26216 52.4252 6.80073V19.3469C52.4252 19.8855 51.3352 19.8855 50.2313 19.8855C49.1275 19.8855 48.0256 19.8855 48.0256 19.3469Z" fill="#1C1C1C"/>
<path d="M60.7132 19.794L54.1456 6.95766C54.1059 6.86624 54.08 6.80066 54.08 6.73508C54.08 6.26209 55.1043 6.26208 56.1426 6.26208C57.324 6.26208 58.4935 6.26209 58.6904 6.68143L61.475 12.7707L64.2854 6.68143C64.4962 6.26209 65.6638 6.26208 66.8333 6.26208C67.8715 6.26208 68.8819 6.26208 68.8819 6.72116C68.8819 6.78675 68.868 6.85233 68.8163 6.94375L62.2626 19.792C62.1314 20.0404 61.8032 20.0404 61.4869 20.0404C61.1607 20.0424 60.8326 20.0424 60.7132 19.794Z" fill="#1C1C1C"/>
<path d="M69.58 13.0093C69.58 9.09818 72.2193 6.11914 76.1336 6.11914C80.2448 6.11914 82.0965 9.20351 82.0965 13.0749C82.0965 13.6651 82.0826 14.2554 81.6888 14.2554H73.9517C74.1347 15.4895 75.2644 16.2904 76.5911 16.2904C77.8123 16.2904 78.8764 16.0022 79.9146 15.3723C79.9803 15.3325 80.0459 15.3206 80.1115 15.3206C80.4934 15.3206 80.7818 15.9506 81.0443 16.6601C81.2671 17.2245 81.464 17.8028 81.464 18.2082C81.464 18.4308 81.4123 18.6017 81.2532 18.6812C79.6242 19.653 77.9296 20.0326 76.0779 20.0326C72.0741 20.0306 69.58 16.9721 69.58 13.0093ZM76.1336 9.754C74.793 9.754 74.0054 10.8033 73.9 11.7752H77.8938C77.868 10.7258 77.4742 9.754 76.1336 9.754Z" fill="#1C1C1C"/>
<path d="M84.7219 19.3469V6.85239C84.7219 6.27407 85.7602 6.27406 86.7964 6.27406C87.8327 6.27406 88.8709 6.27407 88.8709 6.85239V8.00704C89.6725 6.72122 90.6311 6.11707 91.7867 6.11707C92.4312 6.11707 92.9821 6.35355 93.6524 6.9438C93.7837 7.07496 93.8354 7.27172 93.8354 7.52212C93.8354 7.99511 93.6245 8.6251 93.4535 9.13585C93.177 9.9765 92.7832 10.841 92.3238 10.841C92.2442 10.841 92.1666 10.8152 92.0871 10.7615C91.6276 10.4992 91.2855 10.4336 90.9434 10.4336C89.6963 10.4336 89.1315 11.5227 89.1315 12.888V19.3449C89.1315 19.8834 88.0276 19.8834 86.9118 19.8834C85.8139 19.8854 84.7219 19.8854 84.7219 19.3469Z" fill="#1C1C1C"/>
</svg>
