<svg width="115" height="25" viewBox="0 0 115 25" fill="none" xmlns="http://www.w3.org/2000/svg">
<path d="M0.251831 4.88812C0.251831 3.16506 1.19555 2.1322 3.21674 2.1322C5.23792 2.1322 6.18161 3.16263 6.18161 4.88812C6.18161 6.59659 5.23792 7.62947 3.21674 7.62947C1.19555 7.62947 0.251831 6.59902 0.251831 4.88812ZM0.740712 23.7203V9.63444C0.740712 9.0293 1.97872 9.02929 3.23375 9.02929C4.45716 9.02929 5.68059 9.0293 5.68059 9.63444V23.7203C5.68059 24.3254 4.45718 24.3254 3.21917 24.3254C1.97873 24.323 0.740712 24.323 0.740712 23.7203Z" fill="white"/>
<path d="M8.63098 23.713V2.41653C8.63098 2.17593 8.82311 1.96692 9.0639 1.96692H16.4044C22.845 1.96692 28.0646 6.20531 28.0646 13.0732C28.0646 19.9266 22.845 24.1796 16.4044 24.1796H9.0639C8.82311 24.1796 8.63098 23.9536 8.63098 23.713ZM22.1542 13.0732C22.1542 9.55907 19.4228 7.29651 16.0493 7.29651H14.1375V18.8354H16.0493C19.4228 18.833 22.1542 16.5874 22.1542 13.0732Z" fill="white"/>
<path d="M30.1367 15.9144C30.1367 11.1316 33.3643 7.48865 38.151 7.48865C43.1784 7.48865 45.4428 11.2604 45.4428 15.9946C45.4428 16.7164 45.4258 17.4382 44.9442 17.4382H35.4828C35.7065 18.9474 37.0881 19.9267 38.7104 19.9267C40.2037 19.9267 41.505 19.5744 42.7746 18.804C42.8549 18.7554 42.9352 18.7408 43.0154 18.7408C43.4824 18.7408 43.8351 19.5112 44.1561 20.3788C44.4285 21.069 44.6693 21.7762 44.6693 22.272C44.6693 22.5442 44.6061 22.7532 44.4115 22.8504C42.4195 24.0388 40.3473 24.5029 38.0828 24.5029C33.1868 24.5005 30.1367 20.7603 30.1367 15.9144ZM38.151 11.9336C36.5116 11.9336 35.5484 13.2168 35.4195 14.4052H40.3035C40.2719 13.122 39.7903 11.9336 38.151 11.9336Z" fill="white"/>
<path d="M48.3639 19.652V0.66433C48.3639 0.0057278 49.7138 0.0057373 51.0612 0.0057373C52.4087 0.0057373 53.7586 0.0057278 53.7586 0.66433V18.4636C53.7586 19.0104 54.0164 19.4114 54.6731 19.4114C54.9455 19.4114 55.252 19.3798 55.5876 19.2826C55.6363 19.2656 55.6849 19.2656 55.7311 19.2656C56.31 19.2656 56.31 20.42 56.31 21.5938C56.31 22.8454 56.31 24.114 55.7311 24.2258C54.7996 24.4178 53.851 24.498 52.9535 24.498C49.8427 24.5004 48.3639 22.301 48.3639 19.652Z" fill="white"/>
<path d="M58.4504 3.15298C58.4504 1.27439 59.4793 0.151611 61.678 0.151611C63.8768 0.151611 64.9056 1.27439 64.9056 3.15298C64.9056 5.01456 63.8768 6.13735 61.678 6.13735C59.4793 6.13735 58.4504 5.01699 58.4504 3.15298ZM58.9807 23.6644V8.32216C58.9807 7.66356 60.3306 7.66355 61.695 7.66355C63.0279 7.66355 64.3608 7.66356 64.3608 8.32216V23.6644C64.3608 24.323 63.0279 24.323 61.678 24.323C60.3281 24.323 58.9807 24.323 58.9807 23.6644Z" fill="white"/>
<path d="M74.4959 24.2112L66.4647 8.51405C66.416 8.40226 66.3844 8.32206 66.3844 8.24186C66.3844 7.66345 67.637 7.66345 68.9066 7.66345C70.3514 7.66345 71.7815 7.66346 72.0223 8.17625L75.4275 15.6226L78.8642 8.17625C79.122 7.66346 80.5498 7.66345 81.9799 7.66345C83.2496 7.66345 84.4851 7.66345 84.4851 8.22484C84.4851 8.30504 84.4681 8.38524 84.4049 8.49703L76.3906 24.2088C76.2301 24.5125 75.8288 24.5125 75.4421 24.5125C75.0432 24.515 74.6419 24.515 74.4959 24.2112Z" fill="white"/>
<path d="M85.3388 15.9144C85.3388 11.1316 88.5664 7.48865 93.353 7.48865C98.3805 7.48865 100.645 11.2604 100.645 15.9946C100.645 16.7164 100.628 17.4382 100.146 17.4382H90.6849C90.9086 18.9474 92.2901 19.9267 93.9124 19.9267C95.4058 19.9267 96.7071 19.5744 97.9767 18.804C98.057 18.7554 98.1372 18.7408 98.2175 18.7408C98.6845 18.7408 99.0372 19.5112 99.3582 20.3788C99.6306 21.069 99.8714 21.7762 99.8714 22.272C99.8714 22.5442 99.8082 22.7532 99.6136 22.8504C97.6216 24.0388 95.5493 24.5029 93.2849 24.5029C88.3888 24.5005 85.3388 20.7603 85.3388 15.9144ZM93.353 11.9336C91.7137 11.9336 90.7505 13.2168 90.6216 14.4052H95.5056C95.4739 13.122 94.9924 11.9336 93.353 11.9336Z" fill="white"/>
<path d="M103.855 23.6645V8.38541C103.855 7.6782 105.125 7.67819 106.392 7.67819C107.659 7.67819 108.929 7.6782 108.929 8.38541V9.79739C109.909 8.22501 111.082 7.48621 112.495 7.48621C113.283 7.48621 113.956 7.7754 114.776 8.49719C114.937 8.65759 115 8.89819 115 9.2044C115 9.78281 114.742 10.5532 114.533 11.1778C114.195 12.2058 113.713 13.2629 113.151 13.2629C113.054 13.2629 112.959 13.2313 112.862 13.1657C112.3 12.8449 111.882 12.7647 111.463 12.7647C109.938 12.7647 109.248 14.0965 109.248 15.7661V23.662C109.248 24.3206 107.898 24.3207 106.533 24.3207C105.191 24.3231 103.855 24.3231 103.855 23.6645Z" fill="white"/>
</svg>
