<svg width="47" height="47" viewBox="0 0 47 47" fill="none" xmlns="http://www.w3.org/2000/svg">
<g id="pizza">
<path id="Oval 4" fill-rule="evenodd" clip-rule="evenodd" d="M25.3432 45.1569C36.286 45.1569 45.1569 36.286 45.1569 25.3431C45.1569 14.4003 36.286 5.52942 25.3432 5.52942C14.4004 5.52942 5.52948 14.4003 5.52948 25.3431C5.52948 36.286 14.4004 45.1569 25.3432 45.1569Z" fill="#FDD835"/>
<path id="Shape" fill-rule="evenodd" clip-rule="evenodd" d="M23.4666 8.52366e-05C13.9756 9.47734e-05 5.41903 5.71742 1.78694 14.4861C-1.84515 23.2548 0.162467 33.3479 6.87365 40.0592C12.7936 46.0272 21.4536 48.3727 29.5762 46.2081C37.6989 44.0434 44.0431 37.6992 46.2079 29.5766C48.3728 21.454 46.0275 12.7938 40.0596 6.87371C35.6686 2.45837 29.6936 -0.0167414 23.4666 8.52366e-05ZM45.3528 22.684H42.2217C41.8208 12.9536 33.979 5.11182 24.2487 4.71084V1.57977C35.7306 1.98841 44.9441 11.202 45.3528 22.684ZM6.27686 22.684H22.6845V6.27631C13.8168 6.67503 6.67558 13.8163 6.27686 22.684ZM22.6845 24.2485V40.6562C13.8168 40.2575 6.67558 33.1167 6.27686 24.2485H22.6845ZM40.6563 24.2485H24.2487V40.6562C33.1168 40.2575 40.2575 33.1167 40.6563 24.2485ZM24.2487 22.684V6.27631C33.1168 6.67503 40.2575 13.8163 40.6563 22.684H24.2487ZM22.6846 1.57977C17.1467 1.76164 11.8872 4.05065 7.98001 7.97938C4.05136 11.8866 1.76237 17.1462 1.58044 22.684H4.71149C5.11246 12.9536 12.9542 5.11182 22.6846 4.71084V1.57977ZM1.58044 24.2485H4.71149C5.11237 33.9789 12.9539 41.8207 22.6846 42.2217V45.3527C11.2026 44.9441 1.98908 35.7305 1.58044 24.2485ZM24.2487 45.3527C29.7865 45.1709 35.046 42.8819 38.9532 38.9531C42.8819 35.0459 45.1709 29.7863 45.3528 24.2485H42.2217C41.8208 33.9792 33.979 41.8208 24.2487 42.2217V45.3527Z" fill="black"/>
<path id="Shape_2" fill-rule="evenodd" clip-rule="evenodd" d="M33.1765 20.2745C31.1407 20.2745 29.4903 18.6241 29.4903 16.5883C29.4926 14.5533 31.1416 12.9043 33.1765 12.902C35.2124 12.902 36.8628 14.5524 36.8628 16.5883C36.8628 18.6241 35.2124 20.2745 33.1765 20.2745ZM33.1767 18.8C34.3982 18.8 35.3884 17.8098 35.3884 16.5882C35.387 15.3673 34.3976 14.3779 33.1767 14.3765C31.9551 14.3765 30.9649 15.3667 30.9649 16.5882C30.9649 17.8098 31.9551 18.8 33.1767 18.8Z" fill="black"/>
<path id="Shape_3" fill-rule="evenodd" clip-rule="evenodd" d="M28.1078 8.29407C29.3802 8.29407 30.4117 9.32557 30.4117 10.598C30.4102 11.8698 29.3796 12.9005 28.1078 12.9019C26.8353 12.9019 25.8038 11.8704 25.8038 10.598C25.8038 9.32557 26.8353 8.29407 28.1078 8.29407ZM27.3398 10.5981C27.3398 11.0222 27.6836 11.366 28.1078 11.366C28.5317 11.3655 28.8753 11.022 28.8758 10.5981C28.8758 10.1739 28.5319 9.83008 28.1078 9.83008C27.6836 9.83008 27.3398 10.1739 27.3398 10.5981Z" fill="black"/>
<path id="Shape_4" fill-rule="evenodd" clip-rule="evenodd" d="M11.5196 21.196C10.2471 21.196 9.21564 20.1645 9.21564 18.8921C9.21707 17.6203 10.2477 16.5896 11.5196 16.5882C12.792 16.5882 13.8235 17.6197 13.8235 18.8921C13.8235 20.1645 12.792 21.196 11.5196 21.196ZM12.2877 18.8922C12.2877 18.468 11.9439 18.1242 11.5197 18.1242C11.0958 18.1247 10.7522 18.4682 10.7518 18.8922C10.7518 19.3163 11.0956 19.6602 11.5197 19.6602C11.9439 19.6602 12.2877 19.3163 12.2877 18.8922Z" fill="black"/>
<path id="Shape_5" fill-rule="evenodd" clip-rule="evenodd" d="M20.2746 12.902C20.2746 14.9378 18.6242 16.5882 16.5883 16.5882C14.5534 16.586 12.9043 14.9369 12.902 12.902C12.902 10.8661 14.5524 9.2157 16.5883 9.2157C18.6242 9.2157 20.2746 10.8661 20.2746 12.902ZM18.8001 12.902C18.8001 11.6804 17.8099 10.6902 16.5884 10.6902C15.3674 10.6916 14.378 11.681 14.3766 12.902C14.3766 14.1235 15.3669 15.1137 16.5884 15.1137C17.8099 15.1137 18.8001 14.1235 18.8001 12.902Z" fill="black"/>
<path id="Shape_6" fill-rule="evenodd" clip-rule="evenodd" d="M10.598 25.804C11.8704 25.804 12.9019 26.8355 12.9019 28.1079C12.9005 29.3797 11.8698 30.4104 10.598 30.4118C9.3256 30.4118 8.2941 29.3803 8.2941 28.1079C8.2941 26.8355 9.3256 25.804 10.598 25.804ZM9.83008 28.1079C9.83008 28.5321 10.1739 28.8759 10.5981 28.8759C11.022 28.8754 11.3655 28.5319 11.366 28.1079C11.366 27.6838 11.0222 27.34 10.5981 27.34C10.1739 27.34 9.83008 27.6838 9.83008 28.1079Z" fill="black"/>
<path id="Shape_7" fill-rule="evenodd" clip-rule="evenodd" d="M33.1765 25.804C35.2124 25.804 36.8628 27.4544 36.8628 29.4902C36.8605 31.5252 35.2115 33.1742 33.1765 33.1765C31.1407 33.1765 29.4903 31.5261 29.4903 29.4902C29.4903 27.4544 31.1407 25.804 33.1765 25.804ZM30.9649 29.4902C30.9649 30.7117 31.9551 31.702 33.1767 31.702C34.3976 31.7006 35.387 30.7111 35.3884 29.4902C35.3884 28.2687 34.3982 27.2784 33.1767 27.2784C31.9551 27.2784 30.9649 28.2687 30.9649 29.4902Z" fill="black"/>
<path id="Shape_8" fill-rule="evenodd" clip-rule="evenodd" d="M20.2746 32.2549C20.2746 34.2908 18.6242 35.9412 16.5883 35.9412C14.5534 35.9389 12.9043 34.2899 12.902 32.2549C12.902 30.2191 14.5524 28.5687 16.5883 28.5687C18.6242 28.5687 20.2746 30.2191 20.2746 32.2549ZM18.8001 32.2549C18.8001 31.0333 17.8099 30.0431 16.5884 30.0431C15.3674 30.0445 14.378 31.0339 14.3766 32.2549C14.3766 33.4764 15.3669 34.4666 16.5884 34.4666C17.8099 34.4666 18.8001 33.4764 18.8001 32.2549Z" fill="black"/>
<path id="Oval" d="M26.7254 30.4118C27.2344 30.4118 27.647 29.9992 27.647 29.4902C27.647 28.9813 27.2344 28.5687 26.7254 28.5687C26.2164 28.5687 25.8038 28.9813 25.8038 29.4902C25.8038 29.9992 26.2164 30.4118 26.7254 30.4118Z" fill="black"/>
<path id="Oval_2" d="M17.5098 27.6471C18.0187 27.6471 18.4313 27.2345 18.4313 26.7255C18.4313 26.2165 18.0187 25.8039 17.5098 25.8039C17.0008 25.8039 16.5882 26.2165 16.5882 26.7255C16.5882 27.2345 17.0008 27.6471 17.5098 27.6471Z" fill="black"/>
<path id="Oval_3" d="M20.2744 39.6274C20.7834 39.6274 21.196 39.2148 21.196 38.7059C21.196 38.1969 20.7834 37.7843 20.2744 37.7843C19.7654 37.7843 19.3528 38.1969 19.3528 38.7059C19.3528 39.2148 19.7654 39.6274 20.2744 39.6274Z" fill="black"/>
<path id="Oval_4" d="M20.2744 21.1961C20.7834 21.1961 21.196 20.7835 21.196 20.2745C21.196 19.7655 20.7834 19.3529 20.2744 19.3529C19.7654 19.3529 19.3528 19.7655 19.3528 20.2745C19.3528 20.7835 19.7654 21.1961 20.2744 21.1961Z" fill="black"/>
<path id="Oval_5" d="M26.7254 20.2745C27.2344 20.2745 27.647 19.8619 27.647 19.3529C27.647 18.8439 27.2344 18.4313 26.7254 18.4313C26.2164 18.4313 25.8038 18.8439 25.8038 19.3529C25.8038 19.8619 26.2164 20.2745 26.7254 20.2745Z" fill="black"/>
<path id="Shape_9" fill-rule="evenodd" clip-rule="evenodd" d="M25.8038 36.4019C25.8038 35.1295 26.8353 34.098 28.1078 34.098C29.3796 34.0995 30.4102 35.1301 30.4117 36.4019C30.4117 37.6744 29.3802 38.7059 28.1078 38.7059C26.8353 38.7059 25.8038 37.6744 25.8038 36.4019ZM27.3398 36.402C27.3398 36.8261 27.6836 37.17 28.1078 37.17C28.5317 37.1695 28.8753 36.826 28.8758 36.402C28.8758 35.9779 28.5319 35.634 28.1078 35.634C27.6836 35.634 27.3398 35.9779 27.3398 36.402Z" fill="black"/>
</g>
</svg>
