<svg width="132" height="39" viewBox="0 0 132 39" fill="none" xmlns="http://www.w3.org/2000/svg">
<g clip-path="url(#clip0_338_215)">
<path d="M127.111 0.78C129.38 0.78 131.218 2.613 131.218 4.875V34.125C131.218 36.387 129.38 38.22 127.111 38.22H4.88889C2.62044 38.22 0.782222 36.387 0.782222 34.125V4.875C0.782222 2.613 2.62044 0.78 4.88889 0.78H127.111V0.78ZM127.111 0H4.88889C2.2 0 0 2.19375 0 4.875V34.125C0 36.8063 2.2 39 4.88889 39H127.111C129.8 39 132 36.8063 132 34.125V4.875C132 2.19375 129.8 0 127.111 0Z" fill="#A6A6A6"/>
<path d="M66.6258 21.2063C64.328 21.2063 62.4507 22.9515 62.4507 25.35C62.4507 27.7388 64.328 29.4938 66.6258 29.4938C68.9235 29.4938 70.8009 27.7388 70.8009 25.35C70.8009 22.9515 68.9235 21.2063 66.6258 21.2063ZM66.6258 27.8655C65.3644 27.8655 64.2791 26.832 64.2791 25.35C64.2791 23.8583 65.3644 22.8345 66.6258 22.8345C67.8871 22.8345 68.9724 23.8583 68.9724 25.35C68.9724 26.832 67.8773 27.8655 66.6258 27.8655ZM57.5129 21.2063C55.2151 21.2063 53.3378 22.9515 53.3378 25.35C53.3378 27.7388 55.2151 29.4938 57.5129 29.4938C59.8107 29.4938 61.688 27.7388 61.688 25.35C61.688 22.9515 59.8107 21.2063 57.5129 21.2063ZM57.5129 27.8655C56.2515 27.8655 55.1662 26.832 55.1662 25.35C55.1662 23.8583 56.2515 22.8345 57.5129 22.8345C58.7742 22.8345 59.8595 23.8583 59.8595 25.35C59.8595 26.832 58.7742 27.8655 57.5129 27.8655ZM46.6791 22.4835V24.2385H50.9031C50.776 25.2233 50.4435 25.9545 49.9449 26.4518C49.3289 27.066 48.3707 27.7388 46.6889 27.7388C44.088 27.7388 42.0542 25.6523 42.0542 23.0588C42.0542 20.4653 44.088 18.3788 46.6889 18.3788C48.0871 18.3788 49.1138 18.9248 49.8667 19.6365L51.1084 18.3983C50.0524 17.394 48.6542 16.6238 46.6791 16.6238C43.12 16.6238 40.128 19.5098 40.128 23.0685C40.128 26.6175 43.12 29.5133 46.6791 29.5133C48.6053 29.5133 50.0524 28.8893 51.1867 27.7095C52.3502 26.5493 52.712 24.9113 52.712 23.595C52.712 23.1855 52.6827 22.8053 52.6142 22.4933H46.6791V22.4835V22.4835ZM90.9822 23.8485C90.64 22.9223 89.584 21.2063 87.4231 21.2063C85.2818 21.2063 83.5022 22.8833 83.5022 25.35C83.5022 27.6705 85.2622 29.4938 87.6284 29.4938C89.5351 29.4938 90.64 28.3335 91.0898 27.6608L89.672 26.715C89.2027 27.4073 88.5573 27.8655 87.6284 27.8655C86.6996 27.8655 86.0347 27.4365 85.6142 26.6078L91.1778 24.3165L90.9822 23.8485ZM85.3111 25.233C85.2622 23.634 86.5529 22.815 87.4818 22.815C88.2053 22.815 88.8213 23.1758 89.0267 23.6925L85.3111 25.233ZM80.7938 29.25H82.6222V17.0625H80.7938V29.25ZM77.8018 22.1325H77.7333C77.3227 21.645 76.5404 21.2063 75.5431 21.2063C73.4604 21.2063 71.5538 23.0295 71.5538 25.3695C71.5538 27.69 73.4604 29.5035 75.5431 29.5035C76.5307 29.5035 77.3227 29.0648 77.7333 28.5578H77.792V29.1525C77.792 30.7418 76.9413 31.59 75.5724 31.59C74.4578 31.59 73.7636 30.7905 73.48 30.1178L71.8862 30.7808C72.3458 31.8825 73.5582 33.228 75.5724 33.228C77.7138 33.228 79.5227 31.9703 79.5227 28.9088V21.4598H77.792L77.8018 22.1325ZM75.6995 27.8655C74.4382 27.8655 73.3822 26.8125 73.3822 25.3695C73.3822 23.907 74.4382 22.8443 75.6995 22.8443C76.9413 22.8443 77.9191 23.9168 77.9191 25.3695C77.9289 26.8125 76.9511 27.8655 75.6995 27.8655ZM99.5476 17.0625H95.1769V29.25H97.0053V24.6285H99.5573C101.581 24.6285 103.566 23.166 103.566 20.8455C103.566 18.525 101.562 17.0625 99.5476 17.0625ZM99.5867 22.932H96.9955V18.7493H99.5867C100.956 18.7493 101.728 19.8803 101.728 20.8358C101.728 21.7913 100.956 22.932 99.5867 22.932ZM110.87 21.1868C109.55 21.1868 108.181 21.7718 107.614 23.049L109.237 23.7218C109.58 23.049 110.225 22.8248 110.9 22.8248C111.838 22.8248 112.806 23.3903 112.816 24.3945V24.5213C112.484 24.336 111.78 24.0533 110.909 24.0533C109.159 24.0533 107.389 25.0088 107.389 26.793C107.389 28.4213 108.817 29.4743 110.42 29.4743C111.643 29.4743 112.327 28.9283 112.748 28.2848H112.806V29.2305H114.566V24.5603C114.576 22.3958 112.953 21.1868 110.87 21.1868ZM110.645 27.8655C110.049 27.8655 109.218 27.5633 109.218 26.832C109.218 25.896 110.254 25.5353 111.154 25.5353C111.956 25.5353 112.337 25.7108 112.816 25.9448C112.679 27.066 111.701 27.8655 110.645 27.8655ZM120.99 21.45L118.898 26.7345H118.839L116.668 21.45H114.703L117.959 28.8405L116.101 32.9453H118.008L123.024 21.45H120.99ZM104.564 29.25H106.392V17.0625H104.564V29.25Z" fill="white"/>
<path d="M40.4213 12.675V6.82495H42.2204C43.12 6.82495 43.8435 7.09795 44.3813 7.6342C44.9191 8.1802 45.1929 8.8822 45.1929 9.74995C45.1929 10.6177 44.9191 11.3197 44.3813 11.8657C43.8338 12.402 43.1102 12.675 42.2107 12.675H40.4213ZM41.1742 11.9535H42.2107C42.8853 11.9535 43.4231 11.7585 43.824 11.3685C44.2249 10.9785 44.4204 10.4422 44.4204 9.7402C44.4204 9.04795 44.2249 8.5117 43.824 8.1217C43.4231 7.7317 42.8951 7.5367 42.2107 7.5367H41.1742V11.9535Z" fill="white" stroke="white" stroke-width="0.2" stroke-miterlimit="10"/>
<path d="M46.2489 12.675V6.82495H47.0018V12.675H46.2489Z" fill="white" stroke="white" stroke-width="0.2" stroke-miterlimit="10"/>
<path d="M49.9938 12.8017C49.5635 12.8017 49.1529 12.6652 48.7422 12.3825C48.3315 12.0997 48.0675 11.7195 47.9404 11.2125L48.6249 10.9395C48.7031 11.2612 48.8693 11.5342 49.1235 11.7487C49.3778 11.973 49.6613 12.0802 49.984 12.0802C50.3067 12.0802 50.5902 11.9925 50.8249 11.8267C51.0595 11.6512 51.1769 11.427 51.1769 11.1247C51.1769 10.803 51.0595 10.5495 50.8249 10.374C50.5902 10.1985 50.2284 10.0327 49.72 9.87673C49.2018 9.71098 48.8107 9.50623 48.5369 9.24298C48.2729 8.97973 48.136 8.65798 48.136 8.24848C48.136 7.82923 48.3022 7.46848 48.6347 7.15648C48.9671 6.84448 49.4071 6.68848 49.9351 6.68848C50.4338 6.68848 50.8347 6.81523 51.1475 7.05898C51.4604 7.30273 51.6658 7.57573 51.7538 7.86823L51.0693 8.15098C51.0204 7.96573 50.9031 7.79023 50.7075 7.63423C50.512 7.47823 50.2675 7.40023 49.9547 7.40023C49.6613 7.40023 49.4169 7.47823 49.2115 7.64398C49.0062 7.80973 48.9084 8.00473 48.9084 8.24848C48.9084 8.46298 49.0062 8.64823 49.192 8.80423C49.3778 8.95048 49.6613 9.08698 50.0231 9.20398C50.3164 9.30148 50.5511 9.38923 50.7467 9.47698C50.9422 9.56473 51.1378 9.68173 51.3333 9.82798C51.5289 9.97423 51.6853 10.1497 51.7831 10.3642C51.8809 10.5787 51.9395 10.8322 51.9395 11.115C51.9395 11.3977 51.8809 11.6512 51.7635 11.8755C51.6462 12.0997 51.4898 12.2752 51.2942 12.402C51.0987 12.5287 50.8933 12.636 50.6684 12.7042C50.4631 12.7725 50.2284 12.8017 49.9938 12.8017Z" fill="white" stroke="white" stroke-width="0.2" stroke-miterlimit="10"/>
<path d="M53.7876 12.675H53.0347V6.82495H55.0293C55.528 6.82495 55.9582 6.9907 56.32 7.3222C56.6818 7.6537 56.8675 8.0632 56.8675 8.5702C56.8675 9.06745 56.6818 9.4867 56.32 9.8182C55.9582 10.1497 55.528 10.3155 55.0293 10.3155H53.7876C53.7876 10.3155 53.7876 12.675 53.7876 12.675ZM53.7876 9.5842H55.0489C55.3618 9.5842 55.616 9.47695 55.8116 9.26245C56.0071 9.04795 56.0951 8.81395 56.0951 8.56045C56.0951 8.30695 55.9973 8.07295 55.8116 7.85845C55.616 7.64395 55.3618 7.5367 55.0489 7.5367H53.7876V9.5842Z" fill="white" stroke="white" stroke-width="0.2" stroke-miterlimit="10"/>
<path d="M62.6169 11.9145C62.04 12.5092 61.3262 12.8017 60.4658 12.8017C59.6053 12.8017 58.8916 12.5092 58.3147 11.9145C57.7378 11.3197 57.4542 10.5982 57.4542 9.74999C57.4542 8.90174 57.7378 8.17049 58.3147 7.58549C58.8916 6.99074 59.6053 6.69824 60.4658 6.69824C61.3164 6.69824 62.0302 6.99074 62.6169 7.58549C63.1938 8.18024 63.4871 8.90174 63.4871 9.74999C63.4871 10.608 63.1938 11.3295 62.6169 11.9145ZM58.872 11.427C59.3022 11.8657 59.84 12.0802 60.4658 12.0802C61.0916 12.0802 61.6293 11.8657 62.0596 11.427C62.4898 10.9882 62.7147 10.4325 62.7147 9.74999C62.7147 9.06749 62.4996 8.51174 62.0596 8.07299C61.6293 7.63424 61.0916 7.41974 60.4658 7.41974C59.84 7.41974 59.3022 7.63424 58.872 8.07299C58.4418 8.51174 58.2169 9.06749 58.2169 9.74999C58.2169 10.4325 58.4418 10.9882 58.872 11.427Z" fill="white" stroke="white" stroke-width="0.2" stroke-miterlimit="10"/>
<path d="M64.5431 12.675V6.82495H65.4622L68.3173 11.3782H68.3467L68.3173 10.2472V6.82495H69.0702V12.675H68.288L65.3058 7.9072H65.2764L65.3058 9.0382V12.675H64.5431Z" fill="white" stroke="white" stroke-width="0.2" stroke-miterlimit="10"/>
<path d="M70.4098 12.675V6.82499H71.1626V12.675H70.4098ZM71.1138 6.36674H70.4586L70.8889 5.32349H71.7102L71.1138 6.36674Z" fill="white" stroke="white" stroke-width="0.2" stroke-miterlimit="10"/>
<path d="M73.9591 12.675L71.896 6.82495H72.7271L74.3307 11.5732H74.36L76.0418 6.82495H76.8729L74.7413 12.675H73.9591Z" fill="white" stroke="white" stroke-width="0.2" stroke-miterlimit="10"/>
<path d="M81.1556 7.54645H78.4862V9.39895H80.8916V10.101H78.4862V11.9535H81.1556V12.675H77.7333V6.82495H81.1556V7.54645Z" fill="white" stroke="white" stroke-width="0.2" stroke-miterlimit="10"/>
<path d="M82.3289 12.675V6.82495H83.0818V11.9535H85.624V12.675H82.3289Z" fill="white" stroke="white" stroke-width="0.2" stroke-miterlimit="10"/>
<path d="M88.5378 12.675V6.82495H89.4569L92.312 11.3782H92.3413L92.312 10.2472V6.82495H93.0649V12.675H92.2827L89.3004 7.9072H89.2711L89.3004 9.0382V12.675H88.5378Z" fill="white" stroke="white" stroke-width="0.2" stroke-miterlimit="10"/>
<path d="M99.2053 11.9145C98.6284 12.5092 97.9147 12.8017 97.0542 12.8017C96.1938 12.8017 95.48 12.5092 94.9031 11.9145C94.3262 11.3197 94.0427 10.5982 94.0427 9.74999C94.0427 8.90174 94.3262 8.17049 94.9031 7.58549C95.48 6.99074 96.1938 6.69824 97.0542 6.69824C97.9049 6.69824 98.6187 6.99074 99.2053 7.58549C99.7822 8.18024 100.076 8.90174 100.076 9.74999C100.066 10.608 99.7822 11.3295 99.2053 11.9145ZM95.4604 11.427C95.8907 11.8657 96.4284 12.0802 97.0542 12.0802C97.68 12.0802 98.2178 11.8657 98.648 11.427C99.0782 10.9882 99.3031 10.4325 99.3031 9.74999C99.3031 9.06749 99.088 8.51174 98.648 8.07299C98.2178 7.63424 97.68 7.41974 97.0542 7.41974C96.4284 7.41974 95.8907 7.63424 95.4604 8.07299C95.0302 8.51174 94.8053 9.06749 94.8053 9.74999C94.8053 10.4325 95.0302 10.9882 95.4604 11.427Z" fill="white" stroke="white" stroke-width="0.2" stroke-miterlimit="10"/>
<path d="M21.8118 18.972L25.8776 14.9061L12.745 7.52509C11.8746 7.05484 11.0592 6.98884 10.3442 7.50309L21.8118 18.972ZM26.5706 23.7322L30.7974 21.3548C31.6224 20.8928 32.0747 20.2383 32.0747 19.5123C32.0747 18.7877 31.6224 18.1318 30.7987 17.6698L26.9721 15.5207L22.6643 19.8272L26.5706 23.7322V23.7322ZM9.6375 8.50271C9.5495 8.77359 9.5 9.07609 9.5 9.40746V29.6268C9.5 30.1507 9.6155 30.6017 9.8245 30.9606L20.9579 19.8258L9.6375 8.50271ZM21.8118 20.6783L10.7402 31.7512C10.952 31.8323 11.1802 31.875 11.4209 31.875C11.8499 31.875 12.2967 31.7485 12.7519 31.4955L25.4775 24.3496L21.8118 20.6783V20.6783Z" fill="white"/>
</g>
<defs>
<clipPath id="clip0_338_215">
<rect width="132" height="39" fill="white"/>
</clipPath>
</defs>
</svg>
