<svg width="52" height="52" viewBox="0 0 52 52" fill="none" xmlns="http://www.w3.org/2000/svg">
<path fill-rule="evenodd" clip-rule="evenodd" d="M3.97296 18.2471C3.99137 18.0742 4.01631 17.9189 4.05936 17.7504C4.39046 16.4546 6.19112 10.57 11.4999 11C12.4135 11.074 14.3739 11.6886 14.9999 13C15.5569 14.167 14.7449 15.9804 15.9999 17C18.3006 18.8692 23.144 19.1867 24.9999 20C29.8063 22.1062 39.1544 24.9793 41.4999 30.5C43.5318 35.2825 42.4173 41.1632 41.3087 44.8728C40.6354 47.1254 38.4964 48.5 36.1454 48.5C29.4082 48.5 15.7128 48.5 10.5083 48.5C9.83332 48.5 9.15664 48.4149 8.58067 48.0631C1.47914 43.7247 3.69276 20.8786 3.97296 18.2471Z" fill="#FDD835"/>
<path d="M20.1058 20.1974C19.6678 19.7179 19.0441 19.4371 18.3948 19.427C17.0888 19.4103 16.0084 20.4515 15.9862 21.7564C15.9791 22.1771 16.3144 22.5238 16.735 22.531C16.7394 22.5311 16.7437 22.5311 16.7482 22.5311C17.1628 22.5311 17.5025 22.1984 17.5095 21.7821C17.5173 21.3161 17.9004 20.9421 18.3709 20.9502C18.6058 20.9539 18.8225 21.0514 18.981 21.2249C19.2648 21.5355 19.7467 21.5573 20.0571 21.2735C20.3677 20.9899 20.3896 20.5079 20.1058 20.1974Z" fill="black"/>
<path d="M24.1582 22.6799C23.9247 22.131 23.4702 21.6979 22.9109 21.4914C21.7862 21.0765 20.5325 21.6531 20.1157 22.7764C19.9694 23.1709 20.1706 23.6093 20.565 23.7556C20.6523 23.788 20.7418 23.8033 20.8297 23.8033C21.1392 23.8033 21.4301 23.6134 21.544 23.3063C21.6691 22.9689 22.0462 22.7962 22.3834 22.9207C22.5529 22.9832 22.6854 23.1095 22.7562 23.276C22.9208 23.6631 23.3683 23.8437 23.7552 23.6789C24.1425 23.5143 24.3228 23.067 24.1582 22.6799Z" fill="black"/>
<path d="M29.0676 15.9336C28.7699 15.6363 28.2875 15.637 27.9905 15.9347L27.2724 16.6542C26.9752 16.952 26.9758 17.4343 27.2735 17.7314C27.4221 17.8798 27.6168 17.9539 27.8115 17.9539C28.0067 17.9539 28.2019 17.8793 28.3507 17.7303L29.0688 17.0108C29.3659 16.713 29.3654 16.2307 29.0676 15.9336Z" fill="black"/>
<path d="M24.3286 25.7672H23.3134C22.8926 25.7672 22.5517 26.1083 22.5517 26.529C22.5517 26.9496 22.8926 27.2907 23.3134 27.2907H24.3286C24.7494 27.2907 25.0903 26.9496 25.0903 26.529C25.0903 26.1083 24.7494 25.7672 24.3286 25.7672Z" fill="black"/>
<path d="M32.1128 25.7672H31.0975C30.6767 25.7672 30.3358 26.1083 30.3358 26.529C30.3358 26.9496 30.6768 27.2907 31.0975 27.2907H32.1128C32.5335 27.2907 32.8745 26.9496 32.8745 26.529C32.8745 26.1083 32.5335 25.7672 32.1128 25.7672Z" fill="black"/>
<path d="M51.9755 39.5018L51.7772 38.4311C51.6507 37.747 51.0533 37.2505 50.3567 37.2505C50.2693 37.2505 50.1811 37.2585 50.0944 37.2744L46.0563 38.0162L47.885 36.7937C48.3643 36.4734 48.6065 35.9004 48.502 35.3319C48.473 35.1763 48.4185 35.0269 48.3397 34.887L47.7863 33.907C47.5967 33.5704 47.2733 33.3202 46.9001 33.2211C46.7172 33.1723 46.5261 33.1615 46.3396 33.1857C46.5433 32.0618 46.6483 30.914 46.6483 29.7455C46.6483 29.227 46.3365 28.7809 45.8911 28.5827C46.4731 27.1986 46.5128 25.6141 45.9376 24.163C45.8909 24.0449 45.8217 23.9396 45.732 23.8498C45.643 23.7609 45.5389 23.6921 45.4208 23.6447C44.7315 23.3702 44.0071 23.231 43.2676 23.231C43.173 23.231 43.0789 23.2335 42.985 23.2379C42.8795 21.1119 41.12 19.4147 38.9719 19.4147C38.6891 19.4147 38.4132 19.4448 38.1468 19.5009C38.3319 18.3938 38.2229 17.2357 37.7918 16.1484C37.7455 16.0288 37.6759 15.9216 37.5813 15.8255C37.4903 15.7345 37.3836 15.6643 37.2652 15.6173C36.5226 15.3216 35.7422 15.1717 34.9456 15.1717C33.7455 15.1717 32.5976 15.5091 31.6065 16.1363C31.2445 15.0875 30.6474 14.1028 29.8131 13.2667C29.5688 13.0219 29.2438 12.887 28.898 12.887C28.5522 12.887 28.2272 13.0219 27.9825 13.2669L24.2945 16.9633C23.612 16.3546 22.7139 15.9907 21.7391 15.9907C21.5179 15.9907 21.2945 16.0101 21.0753 16.0482C20.2807 16.1866 19.5496 16.5755 18.9891 17.145C18.2703 16.7982 17.4469 16.6799 16.6557 16.8176C16.4816 16.8478 16.3127 16.8905 16.1488 16.9425V14.0941C16.1488 12.1325 14.5722 10.5338 12.622 10.5001V8.88467C13.219 8.78138 13.6748 8.26107 13.6748 7.63505V3.97485C13.6748 3.27488 13.1054 2.70532 12.4053 2.70532H6.21093C5.51086 2.70532 4.9414 3.27488 4.9414 3.97485V7.63505C4.9414 8.26107 5.39721 8.78138 5.9942 8.88467V10.4999C4.044 10.5335 2.46755 12.1322 2.46755 14.0939V36.3254C0.946762 37.6989 0 39.6152 0 41.7344C0 45.9031 3.65877 49.2947 8.15615 49.2947L38.6438 49.2858C39.6844 49.2854 40.663 48.828 41.3287 48.0312C41.977 47.2554 42.2526 46.2478 42.0938 45.2542L48.1832 46.3485C48.2675 46.3636 48.3538 46.3713 48.4394 46.3713C48.7431 46.3713 49.0341 46.2781 49.2805 46.102C49.5972 45.8757 49.8116 45.5254 49.8688 45.1412L50.0338 44.0345C50.0575 43.876 50.0549 43.7163 50.0259 43.5598C49.9211 42.9939 49.4902 42.5449 48.9281 42.4161L46.7817 41.9237L50.8159 41.1826C51.1963 41.1128 51.5264 40.8992 51.7454 40.5812C51.9639 40.264 52.0456 39.8807 51.9755 39.5018ZM43.2676 24.7543C43.7261 24.7543 44.177 24.8269 44.6104 24.97C44.9978 26.1495 44.8528 27.4218 44.2462 28.4727H42.1943L42.8491 27.8165C43.1462 27.5187 43.1456 27.0364 42.8477 26.7392C42.5498 26.442 42.0675 26.4425 41.7706 26.7404L41.4241 27.0876C41.2617 26.5529 40.9782 26.0742 40.6054 25.6814C41.3615 25.0811 42.2895 24.7543 43.2676 24.7543ZM38.9719 20.938C40.3476 20.938 41.4667 22.0604 41.4667 23.4401C41.4667 23.4657 41.4655 23.491 41.4648 23.5164C40.6618 23.7775 39.9217 24.2137 39.2905 24.8062C39.1901 24.7681 39.0882 24.7327 38.9836 24.7038C38.7608 23.5001 37.9496 22.5352 36.878 22.0846C37.3228 21.3956 38.0944 20.938 38.9719 20.938ZM34.9455 16.6949C35.4628 16.6949 35.9713 16.7786 36.4612 16.9441C36.855 18.1149 36.7745 19.3726 36.2728 20.4619C35.8604 20.8376 35.5257 21.2977 35.297 21.8148C35.161 21.8228 35.025 21.8378 34.8906 21.8612C34.2938 21.9651 33.7372 22.224 33.2714 22.5996C33.1126 22.3091 32.9181 22.0411 32.6953 21.7998L34.442 20.0491C34.7392 19.7513 34.7386 19.269 34.4407 18.9719C34.1429 18.6747 33.6606 18.6753 33.3635 18.9731L31.4543 20.8867C31.091 20.7149 30.6984 20.5955 30.2857 20.5396C30.464 19.6306 30.905 18.7742 31.5873 18.0903C32.485 17.1904 33.6777 16.6949 34.9455 16.6949ZM29.1087 28.4727H28.4485C28.3373 28.1898 28.0623 27.9892 27.7399 27.9892C27.4174 27.9892 27.1425 28.1899 27.0313 28.4727H26.2545C26.4349 28.179 26.3984 27.7898 26.1438 27.5357C25.846 27.2386 25.3637 27.2391 25.0665 27.5369L24.3486 28.2563C24.2841 28.3209 24.2345 28.3945 24.1981 28.4727H22.6477C22.0671 27.5817 21.7128 26.5301 21.6708 25.3987H33.7553C33.7133 26.5301 33.359 27.5817 32.7784 28.4727H31.165C31.1287 28.3945 31.0789 28.3208 31.0145 28.2562L30.2967 27.5367C29.9994 27.2391 29.5173 27.2383 29.2195 27.5355C28.9647 27.7896 28.9282 28.1789 29.1087 28.4727ZM27.3372 23.8752C27.6243 22.8112 28.5949 22.026 29.7452 22.026C30.8956 22.026 31.8662 22.8113 32.1533 23.8752H27.3372ZM28.8948 14.5091C29.6194 15.2921 30.0984 16.2218 30.3334 17.199C29.9445 17.6216 29.6214 18.0886 29.3666 18.5856C29.2509 18.5147 29.1153 18.4731 28.9698 18.4731H27.9548C27.5341 18.4731 27.193 18.8142 27.193 19.2349C27.193 19.6555 27.5341 19.9966 27.9548 19.9966H28.8452C28.7951 20.2069 28.7562 20.4198 28.728 20.6343C28.4255 20.7137 28.1367 20.8268 27.8663 20.9709C27.3586 20.0947 26.5179 19.4417 25.5217 19.1798C25.5214 19.1777 25.521 19.1755 25.5206 19.1734C25.4609 18.8287 25.3567 18.5017 25.2146 18.1977L28.8948 14.5091ZM15.1252 21.3824C15.0806 21.2575 15.0467 21.1293 15.0245 21.0007C14.806 19.7412 15.6551 18.5379 16.9168 18.3183C17.0498 18.2951 17.185 18.2833 17.3185 18.2833C17.8203 18.2833 18.2999 18.4434 18.7052 18.7461C18.8729 18.8715 19.0849 18.9222 19.2913 18.8864C19.4977 18.8505 19.6802 18.7314 19.796 18.5568C20.1536 18.0174 20.7007 17.6595 21.3365 17.5488C21.4698 17.5256 21.6053 17.5139 21.7391 17.5139C22.8676 17.5139 23.8268 18.3213 24.0195 19.4339C24.0417 19.5614 24.0531 19.6942 24.0533 19.8288C24.054 20.2231 24.3555 20.5517 24.7483 20.5862C25.5999 20.6611 26.3249 21.197 26.661 21.9521C26.211 22.4921 25.8991 23.1514 25.7807 23.8752H21.4367C20.8966 23.8752 20.4332 24.2087 20.2399 24.6805C19.2842 24.0296 18.1579 23.6789 16.9775 23.6789C16.2381 23.6789 15.5136 23.8182 14.8238 24.0928C14.7068 24.1395 14.6022 24.2085 14.513 24.2976C14.4226 24.388 14.3533 24.4939 14.3078 24.6101C14.1325 25.0522 14.0156 25.5067 13.9524 25.9641C13.6794 25.6533 13.487 25.2668 13.4119 24.8332C13.2327 23.7997 13.7738 22.7706 14.7271 22.3307C15.0854 22.1653 15.2582 21.7538 15.1252 21.3824ZM17.396 28.2644L17.6038 28.4727H15.7743C15.3636 27.5199 15.3012 26.4353 15.6347 25.4181C16.0688 25.2748 16.5194 25.2022 16.9775 25.2022C18.1253 25.2022 19.205 25.6508 20.0176 26.4653C20.1256 26.5736 20.2263 26.6872 20.3208 26.8045C20.4499 27.3889 20.6483 27.9472 20.9038 28.4726H19.7559L18.4745 27.1883C18.1772 26.8906 17.6949 26.8898 17.3973 27.1871C17.0994 27.4843 17.0988 27.9667 17.396 28.2644ZM14.1521 28.4727H11.4366C11.5577 27.7349 12.0015 27.1059 12.6176 26.735C12.9823 27.2236 13.4583 27.6187 14.0067 27.8863C14.0455 28.084 14.0932 28.2799 14.1521 28.4727ZM6.46483 4.22875H12.1514V7.38114H6.46483V4.22875ZM11.0986 8.90457V10.4984H7.51773V8.90457H11.0986ZM3.99109 17.183H8.93747C9.35824 17.183 9.69918 16.842 9.69918 16.4213C9.69918 16.0006 9.35824 15.6596 8.93747 15.6596H3.99109V14.0939C3.99109 12.9513 4.91774 12.0218 6.05676 12.0218H12.5596C13.6987 12.0218 14.6253 12.9513 14.6253 14.0939V15.6596H13.2031C12.7823 15.6596 12.4414 16.0006 12.4414 16.4213C12.4414 16.842 12.7823 17.183 13.2031 17.183H14.6253V17.8591C13.7526 18.7148 13.2994 19.9696 13.5232 21.2603C13.5236 21.2629 13.5241 21.2655 13.5245 21.2681C12.3025 22.1065 11.6514 23.5971 11.9107 25.0934C11.9258 25.1807 11.9448 25.2666 11.9655 25.3516C11.585 25.5615 11.2432 25.8324 10.9503 26.1495H3.99109V17.183ZM3.99098 27.6728H10.0658C9.98498 27.9296 9.9279 28.1968 9.90007 28.4727H9.7717C9.07061 28.4727 8.50014 29.0436 8.50014 29.7453C8.50014 30.9548 8.61257 32.1422 8.83042 33.3039C8.61155 33.2863 8.3871 33.2768 8.15879 33.2768C7.23762 33.2768 6.35992 33.423 5.68768 33.6885C4.65936 34.0945 4.37509 34.6711 4.31304 35.07C4.20406 35.1243 4.09702 35.1815 3.99098 35.2401V27.6728ZM13.6364 37.0303C13.9108 37.2497 14.0784 37.4363 14.1756 37.5709C14.1665 37.571 14.1569 37.5711 14.1473 37.5711C13.7162 37.5711 12.9416 37.3973 12.0607 36.9097C11.7328 36.728 11.4306 36.5228 11.1869 36.3163C10.9027 36.0755 10.486 36.0757 10.202 36.3164C9.95827 36.5231 9.65622 36.7282 9.32858 36.9095C8.44753 37.3973 7.67292 37.5711 7.24189 37.5711C7.23203 37.5711 7.22259 37.571 7.21335 37.5709C7.31044 37.4363 7.47812 37.2496 7.75254 37.0301C7.99233 36.8381 8.09338 36.5208 8.00878 36.2256C7.92408 35.9302 7.67038 35.7146 7.36518 35.6789C6.62185 35.5917 6.15182 35.4025 5.93173 35.2648C6.20748 35.0931 6.9046 34.8003 8.15909 34.8003C9.19807 34.8003 9.95745 35.0187 10.3217 35.2233C10.5533 35.3533 10.8358 35.3533 11.0674 35.2234C11.4318 35.0188 12.1913 34.8004 13.2303 34.8004C14.4849 34.8004 15.1819 35.0933 15.4575 35.2649C15.2376 35.4027 14.7674 35.5918 14.0239 35.679C13.7187 35.7148 13.4649 35.9304 13.3803 36.2258C13.2954 36.5211 13.3964 36.8384 13.6364 37.0303ZM12.1127 46.3015L12.1389 46.4426C12.2295 46.9319 12.4205 47.3809 12.6874 47.7713H8.15615C4.4989 47.7713 1.52343 45.0632 1.52343 41.7344C1.52343 39.4595 2.91361 37.4754 4.9607 36.4466C5.19582 36.6221 5.48892 36.7734 5.83667 36.8955C5.69875 37.131 5.60267 37.3843 5.58003 37.6485C5.54996 37.9997 5.65742 38.3332 5.88288 38.5877C6.18077 38.9241 6.638 39.0946 7.24189 39.0946C8.04666 39.0946 9.1026 38.776 10.0664 38.2424C10.2883 38.1196 10.4982 37.9899 10.6946 37.8544C10.8909 37.9898 11.1007 38.1195 11.3228 38.2425C12.2866 38.776 13.3425 39.0945 14.1473 39.0946H14.1474C14.7511 39.0946 15.2083 38.9241 15.5061 38.5878C15.7317 38.3333 15.8392 37.9998 15.8091 37.6485C15.7864 37.3843 15.6903 37.131 15.5524 36.8955C15.9002 36.7733 16.1934 36.622 16.4285 36.4466C18.052 37.2625 19.2617 38.6794 19.693 40.3657L14.3056 42.4122C12.7287 43.0115 11.8064 44.647 12.1127 46.3015ZM40.1595 47.0544C39.7839 47.5042 39.2311 47.7621 38.6431 47.7623L37.8436 47.7626L37.3441 45.0657C37.2674 44.652 36.8702 44.3785 36.4563 44.4554C36.0428 44.5319 35.7695 44.9294 35.846 45.343L36.2943 47.7631L33.6734 47.7642L33.3357 45.9404C33.2591 45.5268 32.8617 45.2535 32.448 45.3301C32.0344 45.4067 31.7611 45.8041 31.8377 46.2178L32.1241 47.7648L26.0278 47.7671L25.569 45.2902C25.4922 44.8766 25.0951 44.6033 24.6812 44.68C24.2676 44.7566 23.9944 45.1541 24.0709 45.5678L24.4785 47.7677L15.5772 47.7712C15.577 47.7712 15.5768 47.7712 15.5766 47.7712C14.6247 47.7712 13.809 47.0958 13.6365 46.1649L13.6103 46.0237C13.4382 45.0938 13.958 44.1739 14.8463 43.8364L17.8401 42.6991L18.0631 43.9028C18.1311 44.2695 18.4512 44.5259 18.8111 44.5259C18.8572 44.5259 18.904 44.5216 18.9509 44.513C19.3644 44.4363 19.6376 44.0389 19.561 43.6252L19.2875 42.1492L23.7313 40.461C24.1246 40.3116 24.3223 39.8717 24.1729 39.4784C24.0235 39.0851 23.583 38.8874 23.1904 39.0368L21.1225 39.8224C20.5424 37.7685 19.052 36.0528 17.0757 35.0699C17.0137 34.671 16.7294 34.0944 15.7012 33.6884C15.029 33.4229 14.1513 33.2767 13.2301 33.2767C12.5961 33.2767 11.9907 33.3467 11.4563 33.4742V33.0141C11.4563 32.5934 11.1154 32.2524 10.6946 32.2524C10.5168 32.2524 10.3536 32.3137 10.224 32.4159C10.1038 31.6214 10.0366 30.8144 10.0254 29.996H34.8358C35.2566 29.996 35.5975 29.6549 35.5975 29.2343C35.5975 28.8136 35.2566 28.4725 34.8358 28.4725H34.5241C35.0092 27.4736 35.2832 26.3536 35.2832 25.1698C35.2832 24.4978 34.769 23.9442 34.1137 23.8813C34.399 23.6123 34.7551 23.4309 35.152 23.3617C35.2683 23.3415 35.3863 23.3313 35.5029 23.3313C36.4863 23.3313 37.3219 24.0348 37.4898 25.0039C37.5092 25.1161 37.5192 25.2319 37.5193 25.3482C37.5198 25.7427 37.8214 26.0715 38.2144 26.106C39.1247 26.186 39.8694 26.8706 40.0255 27.7709C40.067 28.0102 40.0618 28.2465 40.0202 28.4725H39.203C38.7822 28.4725 38.4413 28.8136 38.4413 29.2343C38.4413 29.6549 38.7822 29.996 39.203 29.996H45.1232C45.1043 31.3933 44.9244 32.7582 44.5887 34.0824L40.4606 36.5193C40.2081 35.6406 39.6213 34.8952 38.8128 34.4427C37.9059 33.9352 36.8282 33.8558 35.8563 34.225L27.3544 37.4549C26.9611 37.6043 26.7634 38.0443 26.9128 38.4375C27.0622 38.8309 27.5026 39.0283 27.8954 38.8791L29.0154 38.4537L29.3631 40.3312C29.4311 40.698 29.7512 40.9544 30.1112 40.9544C30.1572 40.9544 30.204 40.9502 30.2509 40.9415C30.6644 40.8649 30.9377 40.4675 30.8612 40.0539L30.4629 37.9038L36.3971 35.6494C36.947 35.4406 37.5561 35.4854 38.0687 35.7723C38.5804 36.0586 38.9348 36.5522 39.0413 37.1262L40.5823 45.4457C40.6885 46.0194 40.5345 46.6057 40.1595 47.0544ZM42.8773 41.0921C42.5219 41.1574 42.2614 41.4634 42.2534 41.8246C42.2455 42.1859 42.4925 42.5029 42.8446 42.5837L48.5158 43.8845L48.3741 44.835L41.7996 43.6535L40.7719 38.1048L46.4984 34.7244L46.9754 35.5691L42.1453 38.7979C41.845 38.9986 41.727 39.3828 41.8629 39.7175C41.9987 40.0522 42.3511 40.2456 42.7064 40.1803L50.2937 38.7866L50.4627 39.6986L42.8773 41.0921Z" fill="black"/>
</svg>
