<svg width="45" height="46" viewBox="0 0 45 46" fill="none" xmlns="http://www.w3.org/2000/svg">
<path fill-rule="evenodd" clip-rule="evenodd" d="M43.1564 35.9262V33.2728C44.1205 32.5839 44.7508 31.4565 44.7508 30.184C44.7508 28.9114 44.1205 27.7839 43.1564 27.095V24.2495V21.2364C44.2141 20.8183 44.9648 19.7863 44.9648 18.5816C44.9647 8.3357 36.629 0 26.3831 0H18.602C8.35597 0 0.0202637 8.3357 0.0202637 18.5817C0.0202637 19.7863 0.770846 20.8184 1.82867 21.2365V24.2496V27.0951C0.864451 27.7839 0.234232 28.9114 0.234232 30.184C0.234232 31.4565 0.86456 32.584 1.82867 33.2728V35.9262C0.74507 36.5888 0.0202637 37.7831 0.0202637 39.1436C0.0202637 42.6055 2.8367 45.4219 6.29864 45.4219H38.6864C42.1483 45.4219 44.9648 42.6055 44.9648 39.1436C44.9647 37.7831 44.24 36.5888 43.1564 35.9262ZM25.37 23.485V21.4358H33.4525V23.485H25.37ZM3.35767 21.4358V23.485H23.8409V21.4358H3.35767ZM34.9817 21.4358H41.6273V23.485H34.9817V21.4358ZM26.3831 1.52911H18.602C9.19911 1.52911 1.54944 9.17889 1.54944 18.5817C1.54944 19.3122 2.14383 19.9066 2.87432 19.9066H24.6056H34.2173H42.1108C42.8413 19.9066 43.4357 19.3122 43.4357 18.5817C43.4357 9.17889 35.7859 1.52911 26.3831 1.52911ZM3.35767 26.4101V25.0142H24.6054H34.2171H41.6272V26.4101H17.431C17.2283 26.4101 17.0337 26.4906 16.8903 26.6341L13.9028 29.6216L10.9153 26.6341C10.7719 26.4906 10.5774 26.4101 10.3746 26.4101H3.35767ZM10.0581 27.9393H3.73578C2.62487 28.0839 1.76343 29.0343 1.76343 30.184C1.76343 31.4334 2.77986 32.4498 4.02927 32.4498H40.9558C42.2052 32.4498 43.2216 31.4334 43.2216 30.184C43.2216 29.0343 42.3602 28.0839 41.2493 27.9393H17.7477L14.4436 31.2436C14.3002 31.387 14.1058 31.4675 13.9029 31.4675C13.7001 31.4675 13.5057 31.387 13.3623 31.2436L10.0581 27.9393ZM3.35767 35.3751V33.979H41.6271V35.3751H34.6101C34.4073 35.3751 34.2128 35.4556 34.0694 35.599L31.0818 38.5865L28.0943 35.599C27.9509 35.4556 27.7565 35.3751 27.5537 35.3751H3.35767ZM6.29869 43.8928H38.6865C41.3052 43.8928 43.4356 41.7623 43.4356 39.1436C43.4356 37.9088 42.4311 36.9042 41.1962 36.9042H34.927L31.6228 40.2083C31.4735 40.3575 31.2777 40.4322 31.0821 40.4322C30.8864 40.4322 30.6908 40.3576 30.5415 40.2083L27.2373 36.9042H3.78884C2.55407 36.9042 1.54944 37.9087 1.54944 39.1436C1.54944 41.7623 3.67995 43.8928 6.29869 43.8928Z" fill="black"/>
</svg>
